<svg xmlns="http://www.w3.org/2000/svg" xmlns:xlink="http://www.w3.org/1999/xlink" viewBox="0 0 459.01 444.55" height="444.55px" width="459.01px"><defs><style>.cls-1 { fill: rgb(234, 244, 212); }
.cls-2, .cls-3, .cls-4 { fill: rgb(255, 255, 255); }
.cls-5 { fill: rgb(228, 255, 143); }
.cls-6 { fill: rgb(80, 116, 10); }
.cls-7 { fill: rgb(216, 255, 132); }
.cls-8 { fill: rgb(50, 99, 0); }
.cls-9, .cls-3 { opacity: 0.2; }
.cls-10 { fill: rgb(135, 186, 20); }
.cls-11, .cls-4 { opacity: 0.05; }
.cls-12 { fill: rgb(213, 215, 209); }
.cls-13 { opacity: 0.15; }
.cls-14 { fill: rgb(169, 213, 86); }
.cls-15 { opacity: 0.1; }
.cls-16 { clip-path: url("#clippath"); }
.cls-17 { fill: rgb(205, 250, 121); }
.cls-18 { fill: none; }
.cls-19 { fill: rgb(28, 55, 0); }
.cls-20 { fill: rgb(164, 205, 87); }
</style><clipPath id="clippath"><path class="cls-18" d="m238.07,321.57c5.07,29.3-14,57.06-42.59,62-28.59,4.94-55.87-14.8-60.94-44.1-4.26-24.66,9.1-45.21,30.48-54.04,4.02-1.66,8.32-2.91,12.84-3.69,2.31-.4,4.61-.67,6.89-.8,25.85-1.55,48.65,13.7,53.31,40.63Z"/></clipPath></defs><g id="Floor"><path id="Floor-2" class="cls-7" d="m391.79,219.28c-89.63-51.53-234.94-51.53-324.57,0-89.63,51.53-89.63,135.09,0,186.62,89.63,51.53,234.94,51.53,324.57,0,89.62-51.53,89.62-135.09,0-186.62Z"/></g><g id="Shadows"><ellipse id="Shadow" class="cls-12" cx="333.14" cy="314.3" rx="40.97" ry="23.65"/><path id="Shadow-2" class="cls-12" d="m284.26,355.7c-16.36-1.5-30.29-.47-41.34,1.82-1.47-10.44-10.03-20.66-25.68-28.64-34.54-17.61-90.55-17.61-125.09,0-34.54,17.61-34.54,46.16,0,63.76,34.54,17.61,90.55,17.61,125.09,0,3.89-1.98,7.34-4.11,10.35-6.34,11.07,2.5,23.35,3.84,34.5,3.53.39.14.78.27,1.19.4,9.85,3.15,20.29,4.74,29.07,4.74,7.62,0,13.98-1.21,17.59-3.65.4-.27.76-.55,1.08-.84,4.72.14,9.85.34,15.25-.75,7.83-1.58,11.68-5.02,11.46-9.12-.55-10.35-30.6-22.82-53.48-24.92Zm-21.74,30.82c-6.71-2.47-10.3-5.84-9.9-9.37.53-4.66,7.41-8.86,15.67-9.55,1.14-.1,2.3-.14,3.47-.14,6.37,0,12.89,1.36,17.05,3.35-1.91.05-3.74.33-5.42.91-2.47.85-3.61,2.83-2.98,5.17.48,1.76,1.97,3.69,4.31,5.54-5.78,2.55-13.6,3.83-22.21,4.1Zm26.88-12.46c1.18,0,2.39.1,3.61.29.04.09.07.18.09.27.49,1.74-1.35,3.92-5.08,6.11-2.57-1.72-4.11-3.45-4.45-4.71-.11-.39-.23-.84.89-1.22,1.5-.52,3.18-.75,4.94-.75Zm-17.88,15.07c6.09-.78,11.53-2.19,15.84-4.33.17-.09.34-.17.51-.26,4.3,2.49,10.24,4.59,17.35,5.5-7.21,2.57-20.54,2.2-33.7-.91Zm38.1-1.96c-7.67-.44-13.93-2.35-18.4-4.59,3.56-2.4,5.31-4.9,5.24-7.47,3.68,1.04,7.18,2.75,9.7,4.68,2.64,2.03,4.09,4.18,3.97,5.9-.04.52-.2,1.01-.5,1.47Zm16.01-.63c-4.44.89-8.62.71-12.49.73.14-.48.21-.93.24-1.33.2-2.88-1.66-5.98-5.24-8.73-3.39-2.61-8.22-4.79-13.14-5.81-4.38-5.47-17.77-7.83-26.99-7.06-9.92.83-17.94,6.18-18.65,12.44-.27,2.36.36,6.21,5.69,9.73-8-.26-16.35-1.27-24.15-2.85,8.14-7.03,12.22-14.95,12.22-22.87,10.79-2.28,24.52-3.33,40.81-1.83,23.94,2.2,50.13,14.7,50.52,21.84.11,2.13-3.1,4.59-8.84,5.74Z"/></g><g id="Clouds"><g id="Clouds-2"><path class="cls-17" d="m118.71,19.54l-11.46,6.62c.06-.51.1-1.02.1-1.52v-3.32c0-5.91-4.15-8.3-9.26-5.35-2.07,1.2-3.98,3.09-5.52,5.31-.84-7.43-6.67-10.19-13.74-6.11-7.65,4.42-13.86,15.16-13.86,24v4.97c0,2.29.42,4.22,1.17,5.75l-9.52,5.49c-2.84,1.64-5.14,5.62-5.14,8.9s2.3,4.6,5.14,2.97l62.09-35.85c2.84-1.64,5.14-5.62,5.14-8.9s-2.3-4.6-5.14-2.97Z"/><path class="cls-17" d="m165.26,39.32l-7.31,4.22c.04-.33.06-.65.06-.97v-2.12c0-3.77-2.64-5.29-5.91-3.41-1.32.76-2.54,1.97-3.52,3.38-.53-4.74-4.25-6.5-8.76-3.89-4.88,2.82-8.84,9.67-8.84,15.3v3.17c0,1.46.27,2.69.75,3.67l-6.07,3.5c-1.81,1.04-3.28,3.59-3.28,5.67s1.47,2.94,3.28,1.89l39.59-22.86c1.81-1.04,3.28-3.58,3.28-5.67s-1.47-2.94-3.28-1.89Z"/></g></g><g id="Plant"><g id="Plants"><path class="cls-14" d="m326.74,310.65c-1.03-11.32-.23-23.12,2.06-35,2.66-13.81,10.59-25.05,20.07-30.25,3.3-1.81,10.17-3.75,14.67.31,4.29,3.87,1.99,10.11-3.25,16.51-10.34,12.63-20.53,23.19-23.32,39.74l-1.16,12.28-9.08-3.59Z"/><path class="cls-9" d="m326.74,310.65c-1.03-11.32-.23-23.12,2.06-35,2.66-13.81,10.59-25.05,20.07-30.25,3.3-1.81,10.17-3.75,14.67.31,4.29,3.87,1.99,10.11-3.25,16.51-10.34,12.63-20.53,23.19-23.32,39.74l-1.16,12.28-9.08-3.59Z"/><path class="cls-2" d="m329.93,309.1c-.28,0-.51-.23-.51-.51,0-16,3.39-29.85,10.36-42.35,4.61-8.26,10.24-14.26,17.23-18.34.24-.15.56-.06.7.18.14.25.06.56-.18.7-6.82,3.98-12.33,9.85-16.85,17.95-6.89,12.35-10.23,26.04-10.23,41.85,0,.28-.23.51-.51.51Z"/><path class="cls-14" d="m341.15,316.4c-.03-3.93,2.62-11.2,8.32-18.25,6.3-7.79,15.57-13.26,16.62-18.19,1.27-5.92-4.17-8.79-12.22-5.95-9.68,3.41-19.21,16.72-18.06,40.23l5.33,2.17Z"/><path class="cls-2" d="m338.84,312.91c.17-.07.3-.23.31-.43,1.18-20.82,13.22-31.52,19.62-34.34.25-.11.36-.4.25-.65-.11-.25-.39-.36-.65-.25-7.08,3.13-19,13.93-20.2,35.19-.02.27.19.5.46.52.07,0,.14,0,.2-.03Z"/></g></g><g id="Cat"><g id="Cat-2"><g id="Yarn"><path class="cls-8" d="m291.26,390.08c-8.78,0-19.22-1.6-29.07-4.74-.41-.13-.81-.26-1.19-.4-16.45.47-35.38-2.67-49.19-7.82l1.14-3.06c11.37,4.24,26.75,7.09,41.03,7.55-5.34-3.52-5.96-7.37-5.69-9.73.71-6.26,8.72-11.61,18.65-12.44,9.22-.77,22.61,1.59,26.99,7.06,4.92,1.01,9.75,3.2,13.14,5.81,3.58,2.75,5.44,5.85,5.24,8.73-.03.4-.1.85-.24,1.33,3.86-.01,8.04.17,12.49-.73,5.74-1.15,8.95-3.61,8.84-5.74-.38-7.14-26.57-19.64-50.52-21.84-31.9-2.94-54.05,3.89-63.31,10.63l-1.92-2.64c9.72-7.07,32.73-14.26,65.53-11.24,22.88,2.1,52.93,14.57,53.48,24.92.22,4.1-3.63,7.54-11.46,9.12-5.4,1.09-10.53.89-15.25.75-.32.28-.67.57-1.08.84-3.61,2.45-9.97,3.65-17.59,3.65Zm-20.83-5.85c13.16,3.11,26.49,3.48,33.7.91-7.11-.91-13.05-3-17.35-5.5-.17.09-.34.17-.51.26-4.31,2.14-9.75,3.55-15.84,4.33Zm19.7-6.55c4.47,2.24,10.73,4.15,18.4,4.59.3-.46.46-.95.5-1.47.12-1.72-1.32-3.87-3.97-5.9-2.52-1.94-6.02-3.65-9.7-4.68.08,2.57-1.67,5.07-5.24,7.47Zm-19.46-15.12c-1.17,0-2.33.05-3.47.14-8.26.69-15.14,4.89-15.67,9.55-.4,3.54,3.18,6.91,9.9,9.37,8.61-.27,16.43-1.55,22.21-4.1-2.35-1.85-3.84-3.78-4.31-5.54-.63-2.34.51-4.32,2.98-5.17,1.67-.57,3.51-.86,5.42-.91-4.15-1.99-10.68-3.35-17.05-3.35Zm17.63,6.6c-1.76,0-3.44.23-4.94.75-1.11.38-.99.83-.89,1.22.34,1.26,1.88,2.99,4.45,4.71,3.74-2.19,5.57-4.36,5.08-6.11-.03-.09-.06-.18-.09-.27-1.22-.19-2.44-.29-3.61-.29Z"/><path class="cls-6" d="m300.67,386.05c2.14.54,5.01.96,6.77,1.2.51-.26.98-.53,1.41-.82.4-.27.76-.55,1.08-.84,0,0-3.2-.16-5.8-.46-1.03.37-2.2.67-3.46.92Z"/><path class="cls-6" d="m284.36,380.75c.65-.27,1.29-.56,1.9-.86.17-.09.34-.17.51-.26,0,0-1.31-.66-3.15-2.12-.77.34-1.59.66-2.44.95,1.04,1.03,2.21,1.78,3.17,2.28Z"/><path class="cls-6" d="m292.01,369.72c.16.56.07,1.16-.24,1.8,1.34.17,2.45.52,3.22.82.26-.71.4-1.42.38-2.13,0,0-1.63-.58-3.45-.76.04.09.07.18.09.27Z"/><path class="cls-6" d="m250.01,381.41c1.5,1.46,3.46,2.69,4.99,3.53,2.02.04,4.03.04,5.99-.01,0,0-4.62-1.76-7.02-3.33-1.31-.04-2.64-.11-3.96-.19Z"/><path class="cls-6" d="m217.63,362.04l1.92,2.64c3.66-2.66,9.33-5.33,16.81-7.41.38-1.23.66-2.42.83-3.57-8.78,2.26-15.4,5.31-19.57,8.35Z"/><path class="cls-6" d="m222.8,377.13c-3.51-.91-6.83-1.94-9.86-3.07l-1.14,3.06c2.46.92,5.09,1.77,7.83,2.54,1.09-.8,2.15-1.64,3.18-2.54Z"/></g><g id="Cat-3"><path class="cls-8" d="m159.5,238.69s-.04,0-.06,0c-12.43-.47-24.18-9.7-35.55-18.62-9.72-7.63-18.91-14.83-26.76-14.83-.9,0-1.63-.73-1.63-1.63s.73-1.63,1.63-1.63c8.98,0,18.59,7.54,28.78,15.53,10.96,8.6,22.29,17.49,33.66,17.93.9.03,1.61.79,1.57,1.69-.03.88-.76,1.57-1.63,1.57Z"/><g id="Tail"><path class="cls-14" d="m78.81,310.37c-8.84-3.28-16.4-15.37-13.11-28.84,3.96-16.22,21.77-27.71,31.55-37.12,18.16-17.48,29.28-31.47,23.49-56.63-5.07-22.03-25.46-29.36-37.58-28.9-15.02.56-24.48,6.83-23.65,11.69.37,2.16,4.46,3.13,7.69,4.31,10.01,3.66,13.11,5.91,16.31,10.22,4.87,6.56,5.69,15.12,4.64,15.72-1.05.6-2.44-4.34-9.09-7.18-6.65-2.84-9.9-.8-9.84.68.06,1.55,6.18,2.88,8.03,11.68,1.54,7.32,1.18,16.75-9.83,31.82-6.78,9.28-22.19,26.65-18.83,48.82,3.36,22.17,20.19,30.27,27.15,30.66l3.07-6.94Z"/><path class="cls-11" d="m78.81,310.37c-8.84-3.28-16.4-15.37-13.11-28.84,3.96-16.22,21.77-27.71,31.55-37.12,18.16-17.48,29.28-31.47,23.49-56.63-5.07-22.03-25.46-29.36-37.58-28.9-15.02.56-24.48,6.83-23.65,11.69.37,2.16,4.46,3.13,7.69,4.31,10.01,3.66,13.11,5.91,16.31,10.22,4.87,6.56,5.69,15.12,4.64,15.72-1.05.6-2.44-4.34-9.09-7.18-6.65-2.84-9.9-.8-9.84.68.06,1.55,6.18,2.88,8.03,11.68,1.54,7.32,1.18,16.75-9.83,31.82-6.78,9.28-22.19,26.65-18.83,48.82,3.36,22.17,20.19,30.27,27.15,30.66l3.07-6.94Z"/><path class="cls-13" d="m75.75,317.31l3.07-6.94c-2.41-.9-4.73-2.45-6.76-4.51-1.31,2.96-2.37,6.13-3.1,9.57,2.64,1.19,5.03,1.78,6.79,1.88Z"/><path class="cls-8" d="m104.49,184.72c1.35-.89.87-2.95.2-4.42-1.8-3.92-4-7.12-7.1-10.15,2.23.37,4.33,1.17,6.49,1.84,3.08.95,5.07,2.32,5.53,1.17.19-.49.1-1.76-.11-2.61-.55-2.11-1.06-2.89-1.79-3.46-7.94-6.16-17.6-8.46-24.55-8.2-15.02.56-24.48,6.83-23.65,11.69.37,2.16,4.46,3.13,7.69,4.31,10.01,3.66,13.11,5.91,16.31,10.22.04.05,3.62,1.79,5.25,2.83.72.46,1.59.96,2.4,1.02.4.03.78-.04,1.13-.27,1.12-.74.88-2.42.47-3.69-.81-2.49-1.82-4.91-3.01-7.25,3.87.89,7.5,2.78,10.44,5.45,1.22,1.11,2.93,2.44,4.31,1.53Z"/></g><g id="Paw"><path class="cls-14" d="m153.22,304.54c1.27,17.38,6.96,28.2,18.82,38.24,11.86,10.04,28.69,16.04,36.14,19.28s12.99,7.2,18.36,2.64c5.38-4.56,4.91-14.43,14.47-22.27,9.56-7.84,12.9-10.03,13.14-15.72.32-7.52-6.9-7.32-9.12-6.19,0,0-1.86-3.2-7.19-2.02-4.48.99-6.61,4.78-6.61,4.78,0,0-3.33-.2-6.84,3.08-3.11,2.9-9.16,10.7-9.16,10.7,0,0,6.46-10.16,3.64-20.99-2.55-9.81-8.83-12.5-8.83-12.5,0,0,2.7-1.38,9.92-.08,0,0-3.06-8.38-16.18-11.63s-21.89,6.18-21.89,6.18l-28.68,6.51Z"/><path class="cls-13" d="m233.58,320.61h0c-1.58,1.31-2.36,2.67-2.36,2.67,1.95-.05,6.19.21,7.65,5.31,0,0,1.67-5.75-5.3-7.98Z"/><path class="cls-13" d="m246.28,326.49s2.71-1.53,1.14-6.54c-.98.06-1.84.28-2.39.56,1.55,1.64,1.75,4.54,1.25,5.98Z"/><path class="cls-10" d="m237.81,336.19c-6.47,1.59-11.88,5.83-14.88,12.97-3,7.14-1.93,11.91.96,12.64,2.89.73,4.3.32,6.84-3.53,2.1-4.8,4.08-10.74,10.29-15.83,1.84-1.51,3.44-2.8,4.84-3.96-.27-2.07-3.05-3.51-8.04-2.29Z"/><path class="cls-20" d="m236.29,329.39c-1.95-.79-4,3.84-1.74,4.72,1.87.73,4.36-3.66,1.74-4.72Z"/><path class="cls-10" d="m243.95,327.82c-1.95-.79-4,3.84-1.74,4.72,1.87.73,4.36-3.66,1.74-4.72Z"/><path class="cls-10" d="m250.24,327.65c-1.95-.79-4,3.84-1.74,4.72,1.87.73,4.36-3.66,1.74-4.72Z"/></g><g id="Body"><path class="cls-14" d="m132.61,259.9c-.98,5.55-21.88,10.82-36.23,21.63-14.34,10.81-27,25.55-24.75,51.11,2.47,28.02,27.7,38.33,40.98,38.33,13.28,0,58.67-3.52,81.9-36.57,23.23-33.05-8.04-76.57-61.91-74.5Z"/><path class="cls-13" d="m99.93,324.63s7.23-12.75,27.08-9.23c19.85,3.52,18.07,34.27,18.07,34.27,0,0,.22,17.19-12.48,15.4-12.7-1.8-32.68-40.43-32.68-40.43Z"/><path class="cls-13" d="m132.61,259.9c-.1.57-.42,1.14-.92,1.71-.85,10.24,2.32,23.44,14,27.08,12.71,3.96,27.06,1.68,36.69-1.71,2.85-1,6-2.37,9.23-4.06-11.82-14.18-32.71-24.03-59-23.01Z"/></g><path class="cls-8" d="m140.63,332.51c-.11,0-.23-.01-.35-.04-43.97-9.45-60.2-37.22-65.97-52.93-7.5-20.44-8.15-42.83-1.62-55.72.41-.81,1.39-1.13,2.2-.72.81.41,1.13,1.39.72,2.2-6.14,12.13-5.43,33.47,1.77,53.11,5.53,15.08,21.15,41.74,63.59,50.86.88.19,1.44,1.06,1.25,1.94-.16.77-.84,1.29-1.6,1.29Z"/><g id="Yarn-2"><path class="cls-8" d="m238.07,321.57c5.07,29.3-14,57.06-42.59,62-28.59,4.94-55.87-14.8-60.94-44.1-4.26-24.66,9.1-45.21,30.48-54.04,4.02-1.66,8.32-2.91,12.84-3.69,2.31-.4,4.61-.67,6.89-.8,25.85-1.55,48.65,13.7,53.31,40.63Z"/><g class="cls-16"><path class="cls-13" d="m271.93,329.93c-12.75,4.17-25.57,6.41-38.3,6.06,2.45-.93,4.92-2.19,7.64-3.63,5.61-2.96,12.62-6.35,14.15-13,.29-1.24-1.22-.99-1.81-.51-4.38,3.62-9.65,8.2-15.37,11.7-6.4,3.91-14.1,5.01-21.42,3.42-1.51-.33-3.03-.7-4.54-1.11,5.49-.96,11.21-3.43,14.8-5.48,10.64-6.07,16.11-14.59,18-26.45.22-1.34-1.15-1.79-2.05-.92-1.65,1.63-1.94,3.37-2.69,5.58-2.41,7.04-5.76,11.06-11.73,15.44-4.12,3.02-9.02,5.33-13.98,6.58-2.56.64-5.21.75-7.8,1.15-2.55.39-5.55.32-7.92-.76-1.91-.87-3.81-1.95-5.69-3.12,11.21-.66,23.73-10.57,30.93-17.28,7.62-7.11,13.13-15.95,11.9-26.56-.21-1.88-2.39-.75-2.65.53-.97,4.92-1.45,8.17-3.75,12.87-2.33,4.76-5.49,8.27-9.54,11.79-8.28,7.17-19.68,14.89-30.93,15.92-1.57-1.15-3.13-2.36-4.61-3.66,8.43-3.15,15.63-9.44,21.52-16.23,3.54-4.09,6.29-8.4,8.11-13.52,1.12-3.18,3.65-8.43,2.32-11.76-.63-1.57-2.56-.09-2.67,1.05-.8,8.11-5.45,15.96-10.61,22.21-2.46-6.83-4.17-12.85-3.7-20.41.23-3.65.82-7.04,1.49-10.63.22-1.13.59-2.24.02-3.29-.82-1.51-2.71.84-2.43,1.94-.08-.28-1.02,1.17-1.09,1.26-.85,1.48-.77,3.7-1.05,5.36-.46,2.78-.8,5.6-.85,8.42-.17,7.44,1.89,13.84,4.75,20.55-2.67,2.68-5.7,4.86-8.74,7.03-1.88-1.39-3.21-5.02-4.27-6.93-1.61-2.87-3.33-5.6-4.52-8.71-2.77-7.21-2.1-15.73-5.13-22.58-.35-.8-1.82.12-1.84.75-.26,9.38,1.29,19.07,5.39,27.6,1.6,3.34,3.92,9.14,6.92,12.38-.77.58-1.57,1.02-2.45,1.39-.94.39-1.91.76-2.92.83-2.39.16-3.72-1.97-5.13-3.56-1.66-1.85-3.21-3.79-4.65-5.82-3.41-4.82-6.45-10.39-8.17-16.06-1.46-4.78-1.12-10.31-3.42-14.83-1.11-2.18-3.79.08-3.18,1.95,1.61,4.97.74,10.47,2.3,15.58,2.06,6.76,5.71,13.14,9.83,18.85,6.3,8.72,16.1,16.96,25.79,21.7,14.03,6.86,31.92,10.83,48.62,9.2-17.94,3.62-37.32,1.41-53.99-5.31-19.5-7.87-38.95-25.51-44.08-46.56-.21-.81-1.63-.36-1.7.34-.95,10.41,7.01,21.43,13.84,28.54,7.81,8.11,16.11,15.75,26.61,20.34,11.41,4.97,22.85,8.34,35.4,8.56,4.88.08,10.06.12,15.17-.33-6.41,2.03-13.18,3.51-19.42,3.58-8.57.11-17.08-1.41-25.4-3.32-13.52-3.11-24.82-8.66-35.05-18.14-4.22-3.91-7.64-8.38-10.93-13.07-3.09-4.43-7.66-9.52-8.81-14.87-.26-1.21-2.27.12-2.19,1.05.32,4.41,2.41,8.61,4.67,12.32,1.27,2.1,2.73,4.05,4.16,6.05,1.34,1.88,2.47,3.77,2.58,6.16.08,1.92-.62,3.52-.9,5.36-.26,1.69-.61,3.37-.89,5.06-.59,3.5-.83,7.05-.85,10.59-.1,11.42,5.35,21.31,11.51,30.53.64.98,2.29-.57,2-1.45-3.38-10.62-9.88-19.05-9.27-30.75.31-5.82,1.96-11.19,3.33-16.74.11.12.23.25.34.36,1.94,2.04,3.98,3.98,6.1,5.81,1.7,1.46,3.62,3.11,3.37,5.58-.16,1.67-.97,3.28-1.41,4.87-.5,1.81-.76,3.68-.99,5.53-.4,3.21-.53,6.45-.77,9.68-.75,10.48,2.05,23.9,9.58,31.74.35.36.93.27,1.37-.02,1.06,2.38,2.47,4.58,4.34,6.52.69.71,1.85-.07,1.5-.99-3-7.9-4.25-16.08-3.69-24.09,7.26,3.26,17.55,2.72,24.47.58,5.42-1.67,10.35-3.78,15-7.01,5.27-3.66,9.46-7.47,12.89-12.73,8.84-.73,16.2-3.46,23.94-8.08.63-.38.95-1.3.92-2.12,1.93-.58,3.8-1.27,5.6-2.14.92-.44,1.29-2.08.85-2.94,6.64-1.58,12.9-4.19,18.45-8.06,1.02-.71,1.41-3.31-.48-2.69Zm-97.36,27.91c.41-.92.85-1.83,1.32-2.72.94-1.82,1.99-3.6,3.15-5.28.07-.11.12-.22.16-.34,1.87.7,3.78,1.32,5.74,1.86,4,1.1,8.15,2.06,12.38,2.81-.35,0-1.58,1.15-1.86,1.36-.66.47-1.34.94-2.04,1.37-1.33.84-2.71,1.61-4.16,2.22-2.76,1.18-5.76,2.04-8.77,1.99-1.53-.02-2.96-.41-4.4-.82-1.17-.34-2.08-1.18-1.51-2.46Zm-8.78,14.47c-.42,4.07-.54,8.42,0,12.65-2.71-7.39-4.6-14.86-4.1-22.95.41-6.57,1.56-13.25,3.44-19.58,0,.32,4.07,2.44,4.5,2.68,1.1.61,3.94,1.44,4.39,2.73.09.25.07.52,0,.77-.15.59-.49,1.11-.83,1.61-4.49,6.69-6.56,14.11-7.41,22.07Zm43.52-8.57c-4.04,2.97-8.32,5.07-13.07,6.67-7.22,2.43-17.93,3.54-25.38-.03.35-2.17.8-4.33,1.44-6.45,3.67,1.75,9.23,1.58,12.54.96,5.96-1.11,14.09-4.48,17.42-9.95,5.19.69,10.95,1.08,16.16.88-2.56,2.91-5.93,5.59-9.11,7.92Z"/></g></g><g class="cls-13"><path d="m144.87,342.13c-4.43-12.51-10.84-11.63-10.84-11.63,0,0,2.62-1.52,9.9-.61,0,0-2.05-5.46-9.3-8.71-1.11,5.73-1.2,11.86-.09,18.28,1.34,7.74,4.24,14.8,8.29,20.92,1.98-4.04,4.51-11.25,2.03-18.26Z"/><path d="m160.28,377.04c1.43-3.11,3.4-6.33,6.72-9.35,9.13-8.33,12.35-10.7,12.3-16.39-.07-7.52-7.28-6.95-9.43-5.71,0,0-2.03-3.1-7.29-1.64-4.43,1.23-6.35,5.12-6.35,5.12,0,0-3.57-.37-7.28,3.61-1.73,1.85-4.21,5.38-5.95,7.94,4.52,6.76,10.45,12.35,17.29,16.41Z"/></g><g id="Paw-2"><path class="cls-14" d="m236.17,299.42c-.18-4.44-2.87-10.42-6.35-15.33-5.8-8.2-14.15-13.28-22.57-16.04l-21.66,13.54c23.15-.78,31.11,11.41,33.26,18.21,1.48,4.7,2.73,8.32,5.47,8.32,2.69,0,2.96-2.34,2.96-2.34,1.9,1.79,4.73.73,4.85-1.58,1.04.46,2.1.33,2.91-.52,1.08-1.13,1.2-2.68,1.14-4.25Z"/><path class="cls-13" d="m207.25,268.04l-21.66,13.54c2.97-.1,5.69.02,8.19.31,5.84-3.14,11.84-7.4,16.63-12.7-1.04-.42-2.1-.8-3.15-1.15Z"/><path class="cls-13" d="m235.03,303.67s.03-.03.04-.05c-.91.31-1.75-.07-2.22-1.2-.73-1.77-.96-2.6-1.36-3,0,0,.84,2.75.62,4.77,1.04.46,2.1.33,2.91-.52Z"/><path class="cls-13" d="m230.46,306.48c-1.11-.04-1.96-.84-2.36-2.17-.55-1.86-.89-2.44-1.29-2.84,0,0,.68,2.28.46,4.3.98.93,2.21,1.09,3.19.71Z"/></g><g id="Paw-3"><path class="cls-14" d="m71.64,332.64c2.18,17.29,8.44,27.79,20.81,37.2,12.37,9.41,29.5,14.51,37.1,17.35,7.6,2.84,13.35,6.51,18.48,1.67,5.13-4.84,4.15-14.67,13.28-23s12.35-10.7,12.3-16.39c-.07-7.52-7.28-6.95-9.43-5.71,0,0-2.03-3.1-7.29-1.64-4.43,1.23-6.35,5.12-6.35,5.12,0,0-3.57-.37-7.28,3.61-2.9,3.11-7.96,10.98-7.96,10.98,0,0,7.62-10.99,3.89-21.54-4.43-12.51-10.84-11.63-10.84-11.63,0,0,2.62-1.52,9.9-.61,0,0-3.37-8.98-16.77-10.76-13.28-1.76-21.54,7.32-21.54,7.32l-28.3,8.01Z"/><path class="cls-13" d="m152.74,344.46h0c-1.51,1.39-2.21,2.79-2.21,2.79,2.87-.05,6.35.2,8.13,5.37,0,0,2.24-5.83-5.91-8.16Z"/><path class="cls-13" d="m165.73,349.66s2.63-1.67.79-6.59c-.97.11-1.82.38-2.35.69,1.63,1.56,1.98,4.44,1.56,5.9Z"/><path class="cls-10" d="m157.78,359.79c-6.37,1.92-11.56,6.45-14.18,13.73-2.62,7.29-1.3,11.99,1.62,12.57,2.92.58,4.31.09,6.64-3.88,1.85-4.9,3.51-10.94,9.44-16.35,1.76-1.6,3.29-2.98,4.63-4.21-.38-2.05-3.23-3.35-8.15-1.86Z"/><path class="cls-10" d="m155.41,353.58c-1.99-.69-3.79,4.04-1.49,4.8,1.91.63,4.16-3.88,1.49-4.8Z"/><path class="cls-10" d="m163.47,351.11c-1.99-.69-3.79,4.04-1.49,4.8,1.91.63,4.16-3.88,1.49-4.8Z"/><path class="cls-10" d="m169.74,350.61c-1.99-.69-3.79,4.04-1.49,4.8,1.91.63,4.16-3.88,1.49-4.8Z"/><path class="cls-11" d="m142.19,388.85c-11.87-2.56-10.28-8.94-15.58-12.78-5.3-3.83-17.15-2.37-36.12-17.89-18.97-15.52-19.84-49.2-7.73-63.88-7.65,9.41-12.61,21.53-11.13,38.33.25,2.82.74,5.45,1.41,7.91,2.98,12.75,9.04,21.41,19.4,29.29,12.37,9.41,29.5,14.51,37.1,17.35,7.6,2.84,13.35,6.51,18.48,1.67.41-.39.78-.82,1.12-1.27-2.05,1.33-4.37,1.83-6.95,1.27Z"/></g><path class="cls-13" d="m186.95,305.72c-6.2-8.5-11.06-12.48-18.57-16.69v-4.87c-1.13.39-2.25.8-3.34,1.25-10.72,4.43-19.43,11.8-24.91,21.16,22.86-1.73,33.15,9.93,35.7,16.65,1.79,4.71,3.28,8.33,6.08,8.17,2.74-.16,2.89-2.57,2.89-2.57,2.04,1.72,4.87.47,4.85-1.9,1.09.41,2.16.21,2.94-.71,1.03-1.22,1.07-2.81.91-4.41-.45-4.52-2.92-11.13-6.55-16.11Z"/><g id="Paw-4"><path class="cls-14" d="m194.45,318.48c-.45-4.52-2.92-11.13-6.55-16.11-6.2-8.5-11.06-12.48-18.57-16.69v-5.91s-27.09,5.54-27.6,23.5c23.59-2.17,32.45,9.8,35.04,16.62,1.79,4.71,3.28,8.33,6.08,8.17,2.74-.16,2.89-2.57,2.89-2.57,2.04,1.72,4.87.47,4.85-1.9,1.09.41,2.16.21,2.94-.71,1.03-1.22,1.07-2.81.91-4.41Z"/><path class="cls-13" d="m193.54,322.89s.02-.04.04-.05c-.91.37-1.79.04-2.34-1.1-.85-1.76-1.13-2.59-1.56-2.98,0,0,1.02,2.76.92,4.84,1.09.41,2.16.21,2.94-.71Z"/><path class="cls-13" d="m189.04,326.03c-1.13.02-2.05-.74-2.53-2.07-.68-1.87-1.05-2.44-1.49-2.83,0,0,.83,2.29.73,4.36,1.06.89,2.32.98,3.29.54Z"/><path class="cls-13" d="m148.77,289.51c8.85,2.05,18.23,1.38,26.11-.39-1.71-1.19-3.53-2.3-5.55-3.43v-5.91s-12.38,2.54-20.56,9.74Z"/></g><path class="cls-14" d="m175.17,220.55c2.73-8.64,14.67-19.55,24.72-16.39,5.67,1.78,3.39,22.67,3.39,22.67,0,0-18.39,1.4-28.12-6.28Z"/><path class="cls-13" d="m175.17,220.55c2.73-8.64,14.67-19.55,24.72-16.39,5.67,1.78,3.39,22.67,3.39,22.67,0,0-18.39,1.4-28.12-6.28Z"/><path class="cls-20" d="m183.72,224.79c9.26,2.83,19.57,2.04,19.57,2.04,0,0,2.27-20.89-3.39-22.67-3.67-.54-12.56,5.05-16.18,20.63Z"/><path class="cls-10" d="m195.6,217.1c-.86-2.33.8-5.32.8-5.32-3.39,0-7.81,3.48-8.21,9.09,0,0,6.9,8.32,13.99,3.91.34-1.41.88-2.48,1.48-3.31.06-1.44.09-3.06.07-4.72-3.67-.82-8.12.35-8.12.35Z"/><path class="cls-14" d="m151.71,228.79c-7.53-5.05-23.67-6.11-29.54,2.64-3.31,4.93,11.54,19.85,11.54,19.85,0,0,15.21-10.41,18-22.49Z"/><path class="cls-13" d="m151.71,228.79c-7.53-5.05-23.67-6.11-29.54,2.64-3.31,4.93,11.54,19.85,11.54,19.85,0,0,15.21-10.41,18-22.49Z"/><path class="cls-20" d="m147.69,237.44c-5.47,8-13.98,13.84-13.98,13.84,0,0-14.85-14.91-11.54-19.85,2.53-2.72,12.96-3.9,25.52,6.01Z"/><path class="cls-10" d="m130.07,234.94s3.17,1.3,3.95,3.65c0,0-4.59,2.04-6.87,5.2.85,1.1,1.72,2.14,2.53,3.09,1.18.2,2.56.71,4.03,1.85,8.29-.98,8-11.22,8-11.22-2.96-4.2-9-4.68-11.65-2.57Z"/><path class="cls-14" d="m183.43,282.39c-9.63,3.39-23.98,5.67-36.69,1.71-15.15-4.71-15.98-25.52-12.3-35.09,3.68-9.58,11.26-19.34,28.58-25.45,17.33-6.1,29.35-3.24,38.22,1.91,8.87,5.16,21.26,21.89,12.41,35.06-7.42,11.05-20.59,18.46-30.22,21.86Z"/><path class="cls-1" d="m183.35,280.21c19.2-6.76,18.2-18.03,13.34-22.52s-12.89-5.5-22.07-2.26c-9.19,3.24-14.81,9.06-15.78,15.6-.97,6.54,5.31,15.95,24.51,9.18Z"/><path class="cls-10" d="m178.11,272.18s.77,3.25,3.2,2.44c2.5-.83,1.01-3.88,1.01-3.88l-2.97-2.18-1.24,3.62Z"/><path class="cls-8" d="m177.99,265.01l-4.51-.51c-.34-.04-.59-.35-.55-.69s.35-.58.69-.55l3.93.44,2.85-2.78c.24-.24.64-.24.88.01.24.25.23.64-.01.88l-3.27,3.19Z"/><path class="cls-8" d="m174.72,274.34c-.75,0-1.5-.17-2.2-.5-1.23-.59-2.16-1.62-2.61-2.91-.11-.32.06-.68.38-.79.32-.11.68.06.79.38.34.97,1.04,1.76,1.97,2.2.93.45,1.98.5,2.95.16.97-.34,1.76-1.04,2.2-1.98.45-.93.5-1.98.16-2.95l-1.19-3.38c-.11-.32.06-.68.38-.79.32-.12.68.06.79.38l1.19,3.38c.45,1.29.38,2.67-.21,3.9-.59,1.23-1.62,2.16-2.91,2.61-.56.2-1.13.29-1.7.29Z"/><path class="cls-8" d="m183.19,271.36c-.75,0-1.5-.17-2.2-.5-1.23-.59-2.16-1.62-2.61-2.91l-1.19-3.38c-.11-.32.06-.68.38-.79.32-.12.68.06.79.38l1.19,3.38c.34.97,1.04,1.76,1.98,2.2.93.45,1.98.5,2.95.16,2.01-.71,3.07-2.92,2.36-4.93-.11-.32.06-.68.38-.79.33-.11.68.06.79.38.93,2.66-.47,5.58-3.12,6.51-.56.2-1.13.29-1.7.29Z"/><path class="cls-8" d="m196.6,245.4c.82,2.33-.4,4.89-2.74,5.71s-4.89-.4-5.71-2.74c-.82-2.33.4-4.89,2.74-5.71s4.89.4,5.71,2.74Z"/><path class="cls-8" d="m151.21,261.39c.82,2.33,3.38,3.56,5.71,2.74,2.33-.82,3.56-3.38,2.74-5.71-.82-2.33-3.38-3.56-5.71-2.74-2.33.82-3.56,3.38-2.74,5.71Z"/><path class="cls-8" d="m138.16,262.15c-.24,0-.48-.09-.67-.28-3.42-3.49-9.19-7.06-17.24-4.26-.49.17-1.02-.09-1.19-.57-.17-.49.09-1.02.57-1.19,8.98-3.12,15.39.84,19.18,4.71.36.37.35.96-.01,1.32-.18.18-.42.27-.65.27Z"/><path class="cls-8" d="m136.08,264.47c-.17,0-.34-.05-.49-.14-3.09-1.91-8.71-1.91-11.66-.64-.47.2-1.02-.01-1.22-.49-.2-.47.01-1.02.49-1.22,3.38-1.46,9.71-1.5,13.38.76.44.27.57.84.3,1.28-.18.29-.48.44-.79.44Z"/><path class="cls-8" d="m121.67,272.31c-.26,0-.53-.11-.71-.33-.33-.39-.28-.98.11-1.31,5.53-4.66,12.69-5.53,17-4.36.5.14.79.65.66,1.14-.14.5-.65.79-1.14.66-3.86-1.05-10.29-.25-15.31,3.98-.17.15-.39.22-.6.22Z"/><path class="cls-8" d="m206,238.25s-.06,0-.09,0c-.51-.05-.89-.51-.84-1.02.53-5.4,3.04-12.5,11.99-15.7.48-.17,1.02.08,1.19.56.17.48-.08,1.02-.56,1.19-8.03,2.87-10.29,9.26-10.76,14.13-.05.48-.45.84-.93.84Z"/><path class="cls-8" d="m209.07,238.76c-.1,0-.21-.02-.31-.05-.49-.17-.74-.7-.57-1.19,1.44-4.06,6.4-7.99,9.95-8.98.5-.14,1.01.15,1.15.65.14.49-.15,1.01-.65,1.15-3.1.86-7.48,4.38-8.69,7.81-.14.38-.49.62-.88.62Z"/><path class="cls-8" d="m210.02,242.71c-.19,0-.38-.06-.55-.18-.42-.3-.51-.89-.21-1.3,2.62-3.61,8.72-7.41,15.98-7.26.52.01.92.44.91.95-.01.51-.43.91-.93.91h-.02c-6.59-.14-12.08,3.26-14.43,6.49-.18.25-.47.38-.75.38Z"/><path class="cls-14" d="m189.87,221.01c.8-3.66,4.25-7.18,7.64-7.18,0,0-1.66,2.99-.8,5.32,0,0,8.64-2.27,11.77,1.74,0,0-3.92.72-5.19,5.95-7.08,4.41-13.42-5.82-13.42-5.82Z"/><path class="cls-14" d="m140.52,238.33c-2.91-2.36-7.81-2.95-10.46-.83,0,0,3.17,1.3,3.95,3.65,0,0-8.17,3.62-8.11,8.71,0,0,3.54-1.86,7.8,1.43,8.29-.98,6.81-12.95,6.81-12.95Z"/><path class="cls-14" d="m170.88,221.31c-1.17.27-1.27-1.92-.73-4.64.49-2.46,2.48-7.37-.97-7.31-3.45.06-7.19,3.19-8.65,9.12,0,0-1.6-2.01-2.14-4.25-.55-2.24-3.35-2.44-4.58,2.03-.94,3.39.69,6.79,1.59,8.21.5.79.29,2.1-1.38,3.03,0,0,7.22,2.47,12.07,0,4.85-2.47,4.8-6.18,4.8-6.18Z"/><path class="cls-8" d="m162.33,240.27c1.2-.11,2.08-1.18,1.96-2.37-.41-4.35-2.26-8.6-5.51-12.67-1.43.61-2.8,1.25-4.09,1.91,3.12,3.65,4.9,7.4,5.26,11.17.11,1.13,1.06,1.97,2.17,1.97.07,0,.14,0,.21,0Z"/><path class="cls-8" d="m175.51,232.87c.2,1.04,1.12,1.76,2.14,1.76.14,0,.28-.01.42-.04,1.18-.23,1.95-1.38,1.72-2.56-.78-3.99-2.81-7.75-6-11.26-1.64.27-3.32.61-5.07,1.06,3.74,3.45,6.04,7.15,6.8,11.03Z"/><path class="cls-8" d="m161.66,224.08c2.29,2.53,5.95,7.38,6.83,13.28.16,1.08,1.09,1.86,2.15,1.86.11,0,.21,0,.32-.02,1.19-.18,2.01-1.29,1.83-2.48-.9-6.02-4.09-10.98-6.69-14.16-1.01.31-2.04.64-3.09,1.01-.47.17-.9.34-1.36.51Z"/></g><path class="cls-8" d="m82.85,364.93c-.05,0-.11,0-.16,0-.9-.09-1.56-.88-1.47-1.78.66-6.88,7.43-18.85,23.37-23.63,15.46-4.64,31.65.59,38.37,8.32.59.68.52,1.71-.16,2.31-.68.59-1.71.52-2.31-.16-4.96-5.7-19.5-11.97-34.96-7.34-14.4,4.32-20.48,14.81-21.06,20.81-.08.85-.79,1.48-1.62,1.48Z"/><path class="cls-8" d="m98.86,377.43c-.9,0-1.63-.72-1.63-1.62-.03-3.35,2.47-14.77,10.79-21.93,12.88-11.1,27.83-6.85,32.5-4.27.79.44,1.08,1.43.64,2.22-.44.79-1.43,1.08-2.22.64-4.12-2.27-17.32-5.99-28.79,3.89-7.35,6.33-9.68,16.6-9.66,19.43,0,.9-.72,1.64-1.62,1.65h-.01Z"/><path class="cls-8" d="m77.92,212.26c-4.82,11.38-.41,35.57,9.5,50.48,10.7,16.09,32.4,36.36,56.74,45.37.85.31,1.28,1.25.97,2.1-.24.66-.87,1.07-1.53,1.07-.19,0-.38-.03-.57-.1-25.04-9.26-47.33-30.09-58.33-46.62-11.13-16.73-15.46-43.64-8.92-55.36.55-.99,1.12-1.79,1.63-2.41.34,1.82.53,3.64.51,5.48Z"/></g></g><g id="Sign"><g id="Sign-2"><polygon class="cls-6" points="331.56 33.49 341.57 27.7 341.58 316.81 331.56 322.6 331.56 33.49"/><polygon class="cls-8" points="316.54 313.92 331.56 322.6 331.56 33.49 327.92 31.39 326.7 43.95 325.46 29.96 316.54 24.81 316.54 313.92"/><path class="cls-15" d="m331.56,229.45v-35.64c-.59-13.85-1.26-32.01-1.15-39.93l-3.47-2c0,12.08-1.36,34.36-2.1,49.39-1.05,21.29,2.76,48.8,2.93,59.9.17,11.1,0,59.24,0,59.24l1.71.99s-.51-60.54.92-76.62c.49-5.53.87-10.74,1.15-15.33Zm-3.42,7.54c-2.29-1-1.74-54.82.64-53.96,1.86.67,1.65,54.97-.64,53.96Z"/><polygon class="cls-19" points="327.92 31.39 325.46 29.96 326.7 43.95 327.92 31.39"/><path class="cls-4" d="m321.39,27.62c-.21,15.49,2.83,25.87,2.77,47.38,0,0-.34-15.22-2.39-26.5-2.28-12.58-2.28-21.98-2.28-21.98l1.9,1.1Z"/><path class="cls-4" d="m331.56,33.49c0,5.1-.22,16.73-.86,23.89-.55,6.21-.65,19.56-.23,29.9,0,0-1.79-16.89-1.19-26.91.6-10.01.59-27.86.59-27.86l1.69.97Z"/><path class="cls-15" d="m316.54,82.27v18.54c1.59-9.77,4.08-20.08,4.52-24.47.66-6.58-.44-18.65-1.56-25.46-1.12-6.82-2.96-18.32-2.67-25.9l-.29-.17v18.43c.05.4.09.79.15,1.19,1.24,9.13,1.89,22.63,1.43,28.64-.21,2.79-.9,6.26-1.58,9.19Z"/><path class="cls-4" d="m322.42,214.35c-.3,6.79,2.61,32.15,3.17,40.15,1.09,15.61.6,65,.6,65l-2.02-1.17s.24-55.84,0-62.32c-.33-8.99-2.65-33.81-1.75-41.65Z"/><path class="cls-15" d="m324.17,150.78c0,12.36-.39,35.8-1.95,45.68-1.56,9.88-2.82,25.97-.96,44.18,1.87,18.21.58,33.01.58,33.01,0,0-.6-19.06-2.34-34.66-1.73-15.59-1.36-31.55,0-46.63,1.36-15.08,1.75-43.77,1.75-43.77l2.92,2.19Z"/><path class="cls-4" d="m318.91,147.75s-.23,19.62-.58,26.15c-.36,6.52-1.3,19.25-1.3,19.25,0,0-.31-20.9,0-27.61.31-6.71-.14-19.32-.14-19.32l2.02,1.53Z"/><path class="cls-4" d="m318.91,256.08c1.12,10.5,1.27,22.79,1.57,27.42.3,4.63.76,33.13.76,33.13l-2.33-1.35s-.19-29.51-.27-36.14c-.1-8.5.68-17.43.27-23.07Z"/><path class="cls-15" d="m324.12,32.1c.5,8.15,2.41,16.03,2.96,21.74.55,5.72.98,23.41.98,23.41l-1.96-1.13s.41-16.17-.57-24.06c-.98-7.89-1.64-14.78-1.41-19.96Z"/><polygon class="cls-19" points="341.57 27.7 326.55 19.03 316.54 24.81 331.56 33.49 341.57 27.7"/><polygon class="cls-13" points="341.58 192.5 331.56 198.28 331.56 212.33 341.58 206.54 341.58 192.5"/><polygon class="cls-13" points="331.56 198.28 316.54 189.61 316.54 203.65 331.56 212.33 331.56 198.28"/><polygon class="cls-19" points="234.32 99.11 419.58 206.03 430.32 199.85 245.08 92.89 234.32 99.11"/><polygon class="cls-8" points="225.61 91.85 412.03 199.44 412.03 156.36 395.54 146.83 393.73 159.4 392.65 145.17 225.61 48.77 225.61 76.63 230.97 81.97 225.61 80.41 225.61 91.85"/><path class="cls-4" d="m412.03,192.27c-9.7-5.61-50.49-28.63-55.19-30.88-13.66-6.53-25.44-11.68-43.72-22.09,0,0,8.48,6.05,26.76,15.48,8.58,4.42,16.44,8.2,20.57,10.26,4.12,2.05,51.59,29.37,51.59,29.37v-2.14Z"/><path class="cls-15" d="m225.65,58.01s6.89,3.98,15.91,9.2c14.26,8.25,23.83,14.18,30.02,19.86,6.19,5.68,18.17,12.88,23.56,15.8,0,0-6.32-2.29-18.17-9.63-11.85-7.34-14-11.15-30.83-20.89-16.83-9.73-20.48-11.85-20.48-11.85v-2.5Z"/><path class="cls-15" d="m412.03,187.16c-10.19-5.9-44.25-25.53-49.65-28.65-5.4-3.12-18.11-5.57-25.08-9.6,0,0,5.17,3.76,12.26,6.49,7.08,2.73,55.84,30.24,62.47,34.08v-2.31Z"/><path class="cls-4" d="m230.97,81.97s36.71,21.23,47.48,27.46c10.77,6.23,28.67,18.74,43.76,26.91,15.08,8.17,26.19,12.86,26.19,12.86,0,0-14.43-4.11-26.36-11.02-11.93-6.9-33.65-20.48-46.74-28.06-13.09-7.57-49.69-28.74-49.69-28.74v-.97s5.36,1.56,5.36,1.56Z"/><path class="cls-4" d="m412.03,171.75c-10.01-5.79-43.12-24.88-51.04-29.46-7.92-4.58-19.97-13.03-33.4-20.8-13.43-7.77-24.45-12.56-32.89-15.86-8.44-3.31-17.74-8.57-17.74-8.57,0,0,8.86,6.21,22.17,12.26,13.31,6.05,29.25,14.39,43.4,24.44,14.15,10.05,69.51,40.82,69.51,40.82v-2.83Z"/><path class="cls-4" d="m225.66,52.22s59.93,33.96,74.91,42.62c14.98,8.67,34.61,20.73,34.61,20.73,0,0-31.69-16.85-63.37-35.18-31.68-18.33-46.16-26.7-46.16-26.7v-1.47Z"/><path class="cls-15" d="m412.03,163.66s-69.23-39.97-88.74-51.26c-19.51-11.29-41.26-21.72-41.26-21.72,0,0,16.21,10.72,40.18,24.62,7.1,4.12,89.82,51.88,89.82,51.88v-3.52"/><path class="cls-15" d="m225.61,85.08s42.64,24.66,53.65,31.03c11,6.37,39.53,23.75,46.33,28.06,0,0-28.09-14.76-65.45-36.37l-34.53-19.97v-2.75Z"/><path class="cls-15" d="m225.62,75.31s34.67,20.05,45.19,26.14c10.52,6.08,35.05,22.61,45.81,28.84,10.77,6.23,81.89,44.94,95.41,52.76v-3.04c-8.39-4.85-76.49-49.07-92.77-58.48-16.27-9.41-32.93-14.14-43.07-20-10.14-5.87-50.57-29.25-50.57-29.25v3.04Zm70.33,38.47c0-1.51,13.88,4.83,23.42,10.34,8.41,4.86,25.12,16.11,25.11,17.51,0,1.4-16.33-7.36-25.12-12.45-8.8-5.09-23.41-13.9-23.41-15.41Z"/><path class="cls-4" d="m225.65,63.73c6.57,3.8,27.04,15.37,32.74,19.75,5.69,4.38,11.6,11.42,22.61,17.77,0,0-11.36-4.74-17.88-10.93-6.53-6.19-37.52-23.52-37.52-23.52l.05-3.07Z"/><polygon class="cls-3" points="245.16 60.06 392.79 146.98 393.78 151.01 395.3 148.47 410.17 157.75 412.03 199.44 412.03 156.36 395.53 146.83 394.09 145.97 392.65 145.17 245.16 60.06"/><polygon class="cls-6" points="422.77 193.23 412.03 199.44 412.03 156.36 422.77 150.03 422.77 193.23"/><polygon class="cls-19" points="395.54 146.83 393.73 159.4 392.65 145.17 394.09 145.97 395.54 146.83"/><polygon class="cls-6" points="392.65 145.17 394.09 145.97 393.73 159.4 392.65 145.17"/><polygon class="cls-6" points="225.61 76.63 227.22 79.6 225.62 80.41 230.97 81.97 225.61 76.63"/><polygon class="cls-19" points="225.61 76.63 227.22 79.6 230.97 81.97 225.61 76.63"/><polygon class="cls-19" points="416.59 193.16 412.03 193.31 403.7 189.78 412.03 197.82 416.59 193.16"/><polygon class="cls-6" points="416.59 193.16 412.03 195.46 403.7 189.78 412.03 193.31 416.59 193.16"/><polygon class="cls-19" points="225.61 48.77 412.03 156.36 422.77 150.03 236.47 42.5 225.61 48.77"/><polygon class="cls-8" points="230.6 49.36 415.86 156.28 415.86 113.2 249 16.89 247.19 29.46 246.11 15.23 230.6 6.28 230.6 49.36"/><path class="cls-4" d="m415.86,149.11c-9.7-5.61-50.49-28.63-55.19-30.88-13.66-6.53-25.44-11.68-43.72-22.09,0,0,8.48,6.05,26.76,15.48,8.58,4.42,16.44,8.2,20.57,10.26,4.12,2.05,51.59,29.37,51.59,29.37v-2.14Z"/><path class="cls-15" d="m230.64,15.52s5.72,3.31,14.74,8.53c14.26,8.25,23.83,14.18,30.02,19.86,6.19,5.68,18.17,12.88,23.56,15.8,0,0-6.32-2.29-18.17-9.63-11.85-7.34-14-11.15-30.83-20.89-16.83-9.73-19.32-11.18-19.32-11.18v-2.5Z"/><path class="cls-15" d="m415.86,144c-10.19-5.9-44.25-25.53-49.65-28.65-5.4-3.12-18.11-5.57-25.08-9.6,0,0,5.17,3.76,12.26,6.49,7.08,2.73,55.84,30.24,62.47,34.08v-2.31Z"/><path class="cls-4" d="m230.61,36.38s40.9,23.66,51.67,29.89c10.77,6.23,28.67,18.74,43.76,26.91,15.08,8.17,26.19,12.86,26.19,12.86,0,0-14.43-4.11-26.36-11.02-11.93-6.9-33.65-20.48-46.74-28.06-13.09-7.57-48.52-28.07-48.52-28.07v-2.51Z"/><path class="cls-4" d="m415.86,128.59c-10.01-5.79-43.12-24.88-51.04-29.46-7.92-4.58-19.97-13.03-33.4-20.8-13.43-7.77-24.45-12.56-32.89-15.86-8.44-3.31-17.74-8.57-17.74-8.57,0,0,8.86,6.21,22.17,12.26,13.31,6.05,29.25,14.39,43.4,24.44,14.15,10.05,69.51,40.82,69.51,40.82v-2.83Z"/><path class="cls-4" d="m230.65,9.73c57.89,32.79,57.63,32.63,73.75,41.95,14.98,8.67,34.61,20.73,34.61,20.73,0,0-31.69-16.85-63.37-35.18-31.68-18.33-44.99-26.03-44.99-26.03v-1.47Z"/><path class="cls-15" d="m415.86,120.5s-69.23-39.97-88.74-51.26c-19.51-11.29-41.26-21.72-41.26-21.72,0,0,16.21,10.72,40.18,24.62,7.1,4.12,89.82,51.88,89.82,51.88v-3.52"/><path class="cls-15" d="m230.6,42.58s41.48,23.99,52.48,30.36c11,6.37,39.53,23.75,46.33,28.06,0,0-28.09-14.76-65.45-36.37l-33.37-19.3v-2.75Z"/><path class="cls-15" d="m230.62,32.82s33.51,19.38,44.02,25.47c10.52,6.08,35.05,22.61,45.81,28.84,10.77,6.23,81.89,44.94,95.41,52.76v-3.04c-8.39-4.85-76.49-49.07-92.77-58.48-16.27-9.41-32.93-14.14-43.07-20-10.14-5.87-49.41-28.58-49.41-28.58v3.04Zm69.16,37.8c0-1.51,13.88,4.83,23.42,10.34,8.41,4.86,25.12,16.11,25.11,17.52,0,1.4-16.33-7.36-25.12-12.45-8.8-5.09-23.41-13.9-23.41-15.41Z"/><path class="cls-4" d="m230.65,21.24c6.57,3.8,25.88,14.7,31.57,19.08,5.69,4.38,11.6,11.42,22.61,17.77,0,0-11.36-4.74-17.88-10.93-6.53-6.19-36.35-22.85-36.35-22.85l.05-3.07Z"/><polygon class="cls-19" points="249 16.89 247.56 16.06 246.11 15.23 247.19 29.46 249 16.89"/><polygon class="cls-3" points="249 16.89 414 114.59 415.86 156.28 415.86 113.2 249 16.89"/><polygon class="cls-6" points="415.86 126.8 405.75 123.8 415.86 132.06 415.86 126.8"/><polygon class="cls-6" points="426.61 150.03 415.86 156.28 415.86 113.2 426.61 106.82 426.61 150.03"/><polygon class="cls-19" points="415.86 113.2 426.61 106.82 241.51 0 230.6 6.28 415.86 113.2"/><polygon class="cls-6" points="415.86 126.8 418.73 127.82 415.86 132.06 415.86 126.8"/><polygon class="cls-19" points="418.73 127.82 415.86 129.48 405.75 123.8 415.86 132.06 418.73 127.82"/><polygon class="cls-6" points="246.11 15.23 247.56 16.06 247.19 29.46 246.11 15.23"/><polygon class="cls-8" points="234.32 99.11 419.58 206.03 419.58 249.11 252.71 152.81 250.91 138.16 249.83 151.14 234.32 142.19 234.32 99.11"/><path class="cls-4" d="m419.58,213.2c-9.7-5.59-50.49-29.6-55.19-32.78-13.66-9.24-25.44-17.7-43.72-28.4,0,0,8.48,3.74,26.76,15.42,8.58,5.48,35.68,21.85,39.8,24.56,4.12,2.71,32.36,19.06,32.36,19.06v2.14Z"/><path class="cls-15" d="m234.36,132.99s5.72,3.3,14.74,8.49c14.26,8.21,23.83,13.33,30.02,14.8,6.19,1.47,18.17,8.1,23.56,11.4,0,0-6.32-5.01-18.17-11.35-11.85-6.34-14-5.02-30.83-14.71-16.83-9.7-19.32-11.13-19.32-11.13v2.5Z"/><path class="cls-15" d="m419.58,218.31c-10.19-5.87-25.02-14.43-30.42-17.54-5.4-3.11-37.34-26.4-44.31-30.42,0,0,5.17,2.21,12.26,7.66,7.08,5.45,55.84,34.16,62.47,37.98v2.31Z"/><path class="cls-4" d="m234.33,112.1s40.9,23.57,51.67,29.77c10.77,6.21,28.67,14.37,43.76,23.62,15.08,9.25,26.19,17.38,26.19,17.38,0,0-14.43-12.54-26.36-19.42-11.93-6.88-33.65-18.37-46.74-25.91-13.09-7.55-48.52-27.96-48.52-27.96v2.52Z"/><path class="cls-4" d="m419.58,233.72c-10.01-5.77-23.89-13.77-31.81-18.34-7.92-4.56-39.2-21.1-52.64-28.84-13.43-7.74-24.45-15.68-32.89-22.12-8.44-6.44-17.74-11.91-17.74-11.91,0,0,8.86,4.02,22.17,13.34,13.31,9.32,29.25,19.39,43.4,25.68,14.15,6.29,69.51,39.36,69.51,39.36v2.83Z"/><path class="cls-4" d="m234.37,138.79s58.77,34.57,73.75,43.2c14.98,8.63,34.61,19.24,34.61,19.24,0,0-31.69-19.73-63.37-37.99-31.68-18.26-44.99-25.93-44.99-25.93v1.48Z"/><path class="cls-15" d="m419.58,241.81s-69.23-39.89-88.74-51.14c-19.51-11.24-41.26-25.92-41.26-25.92,0,0,16.21,8,40.18,21.78,7.1,4.08,89.82,51.76,89.82,51.76v3.52"/><path class="cls-15" d="m234.32,105.88s41.48,23.9,52.48,30.24c11,6.34,39.53,21.89,46.33,25.44,0,0-28.09-17.68-65.45-39.2l-33.37-19.23v2.75Z"/><path class="cls-15" d="m234.34,118.7s39.27,22.63,49.41,28.47c10.14,5.84,26.79,20.35,43.07,29.73,16.27,9.38,84.38,43.72,92.77,48.56v-3.04c-13.52-7.79-84.64-51.13-95.41-57.33-10.77-6.2-35.3-18-45.81-24.06-10.52-6.06-44.02-25.37-44.02-25.37v3.04Zm92.57,50.65c8.8,5.07,25.12,15.15,25.12,16.56,0,1.4-16.71-6.64-25.11-11.48-9.54-5.5-23.42-15.19-23.42-16.7,0-1.51,14.62,6.56,23.41,11.62Z"/><path class="cls-4" d="m234.37,127.28c6.57,3.8,25.88,15.18,31.57,17.38,5.69,2.2,11.6,1.98,22.61,8.33,0,0-11.36-8.37-17.88-9.72-6.53-1.35-36.35-19.12-36.35-19.12l.05,3.13Z"/><polygon class="cls-19" points="252.71 152.81 250.77 148.35 249.83 151.14 250.91 138.16 252.71 152.81"/><polygon class="cls-3" points="252.71 109.73 417.72 207.42 419.58 249.11 419.58 206.03 252.71 109.73"/><polygon class="cls-6" points="419.58 235.51 409.47 226.83 419.58 230.25 419.58 235.51"/><polygon class="cls-6" points="430.32 199.85 419.58 206.03 419.58 249.11 430.32 242.91 430.32 199.85"/><polygon class="cls-6" points="419.58 235.51 427.46 227.69 419.58 230.25 419.58 235.51"/><polygon class="cls-19" points="427.46 227.69 419.58 232.83 409.47 226.83 419.58 230.25 427.46 227.69"/><polygon class="cls-6" points="249.83 151.14 250.77 148.35 250.91 138.16 249.83 151.14"/><path class="cls-19" d="m321.55,79.12c2.88,1.66,5.36,3.75,7.44,6.25,2.08,2.5,3.79,5.24,5.16,8.22,1.37,2.98,2.38,6.13,3.06,9.44.67,3.32,1.07,6.61,1.18,9.87.08,2.59.12,5.27.12,8.06s-.04,5.36-.12,7.75c-.12,3.13-.51,5.96-1.18,8.5-.67,2.54-1.69,4.51-3.06,5.91-1.36,1.4-3.08,2.16-5.16,2.26-2.08.1-4.56-.68-7.44-2.34-2.88-1.66-5.36-3.75-7.44-6.25-2.08-2.5-3.8-5.24-5.16-8.22-1.36-2.98-2.38-6.13-3.06-9.44-.67-3.32-1.07-6.61-1.18-9.87-.08-2.47-.12-5.1-.12-7.88s.04-5.42.12-7.92c.11-3.13.51-5.97,1.18-8.51.67-2.54,1.69-4.51,3.06-5.91,1.37-1.4,3.09-2.15,5.16-2.26s4.56.68,7.44,2.34Zm6.17,42.98c.15-4.94.15-9.91,0-14.91-.08-1.52-.22-2.97-.43-4.33-.21-1.36-.55-2.64-1.01-3.82-.46-1.18-1.08-2.26-1.85-3.24-.77-.98-1.73-1.8-2.88-2.46-1.15-.67-2.11-.95-2.88-.87-.77.09-1.39.27-1.85.92-.46.65-.83,1.67-1.06,2.78-.23,1.11-.34,2.44-.37,3.9-.19,4.8-.19,9.77,0,14.91.04,1.5.16,2.93.37,4.3.21,1.36.56,2.64,1.04,3.84.48,1.2,1.11,2.28,1.87,3.26.77.98,1.73,1.8,2.88,2.46,1.15.67,2.11.95,2.88.87.77-.09,1.39-.45,1.87-1.09.48-.64.83-1.52,1.04-2.64.21-1.12.34-2.41.37-3.87Z"/><path class="cls-6" d="m334.15,143.11c-1.37,1.41-3.08,2.16-5.17,2.27-2.07.1-4.55-.68-7.43-2.34-2.88-1.66-5.36-3.75-7.43-6.25-.99-1.18-1.87-2.42-2.7-3.7l3.53-2.03c.71,1.06,1.48,2.08,2.29,3.07,2.07,2.5,4.55,4.59,7.43,6.25,2.88,1.66,5.36,2.44,7.45,2.34.99-.05,2.05-.26,2.88-.61-.24.34-.53.67-.85,1Z"/><path class="cls-6" d="m328.36,94.32l-3.53,2.07c-.14-.2-.26-.41-.41-.6-.78-.97-1.74-1.8-2.88-2.47-1.16-.67-2.12-.95-2.88-.86-.76.09-1.38.27-1.85.92-.3.43-.32.47,0,0,.2-.27.41-.48.64-.65.35-.26,2.85-2.27,3.06-2.43.36-.28.79-.46,1.27-.51.78-.09,1.74.2,2.88.86,1.16.67,2.12,1.49,2.88,2.47.3.38.58.78.81,1.2Z"/><path class="cls-14" d="m337.2,102.84c-.67-3.32-1.69-6.46-3.06-9.44-1.36-2.98-3.08-5.71-5.16-8.22-2.08-2.5-4.56-4.58-7.44-6.25-2.88-1.66-5.36-2.44-7.44-2.34-.99.05-1.89.26-2.71.6-1.02,1.32-1.82,3-2.38,5.1-.67,2.54-1.07,5.38-1.18,8.51-.08,2.5-.12,5.14-.12,7.92s.04,5.41.12,7.88c.11,3.26.51,6.55,1.18,9.87.67,3.32,1.69,6.47,3.06,9.44,1.37,2.98,3.09,5.72,5.16,8.22,2.08,2.5,4.56,4.58,7.44,6.25,2.88,1.66,5.36,2.44,7.44,2.34.99-.05,2.06-.26,2.88-.6.98-1.25,1.72-3.06,2.27-5.16.67-2.54,1-5.31,1.12-8.44.08-2.38.12-4.96.12-7.75s-.04-5.47-.12-8.05c-.12-3.26-.51-6.55-1.18-9.87Zm-6.36,16.59c-.04,1.46-.16,2.75-.37,3.87-.21,1.12-.56,2-1.04,2.64-.2.26-.42.48-.67.65-.05.04-2.88,2.31-3.13,2.48-.35.24-.75.38-1.19.43-.77.09-1.73-.2-2.88-.87-1.15-.66-2.11-1.49-2.88-2.46-.77-.98-1.39-2.06-1.87-3.26-.48-1.19-.83-2.48-1.04-3.84-.21-1.37-.34-2.8-.37-4.3-.19-5.14-.19-10.11,0-14.91.04-1.46.17-2.74.4-3.85.23-1.11.58-1.99,1.04-2.64.19-.26.4-.48.64-.66.35-.25,2.84-2.26,3.05-2.43.36-.28.79-.45,1.27-.51.77-.09,1.73.2,2.88.87,1.15.67,2.11,1.49,2.88,2.46.77.98,1.38,2.06,1.85,3.24.46,1.18.8,2.46,1.01,3.82.21,1.37.36,2.81.43,4.33.15,5,.15,9.97,0,14.91Z"/><path class="cls-19" d="m284.24,120.61c-.42-.24-.79-.69-1.1-1.34-.31-.65-.46-1.3-.46-1.95v-9.06l-18.16-10.49c-.42-.24-.79-.69-1.1-1.34-.31-.65-.46-1.3-.46-1.95v-9.41c0-1.54.25-2.67.75-3.38l17.24-23.51c.35-.45.66-.7.95-.74s.68.08,1.18.37l8.71,5.03c.42.24.79.69,1.1,1.34.31.65.46,1.3.46,1.95v34.09l4.96,2.86c.42.24.79.69,1.1,1.34.31.65.46,1.3.46,1.95v9.41c0,.65-.15,1.12-.46,1.42-.31.3-.67.32-1.1.08l-4.96-2.86v9.05c0,.65-.15,1.13-.46,1.42-.31.3-.67.32-1.1.08l-7.55-4.36Zm-1.27-26.39v-16.33l-8.42,11.47,8.42,4.86Zm-.29,14.04"/><path class="cls-6" d="m299.41,117.2c.31-.29.46-.77.46-1.42v-2.07l-3.39-1.96-3.12,2.66,4.96,2.86c.42.24.79.22,1.1-.08Z"/><path class="cls-6" d="m293.35,121.4v2.07c0,.65-.16,1.12-.47,1.42s-.67.32-1.1.07l-7.54-4.35c-.42-.25-.79-.69-1.1-1.34-.02-.06-.04-.11-.06-.16l3.12-2.66s.04.11.06.16c.31.64.68,1.1,1.1,1.34l5.99,3.45Z"/><path class="cls-6" d="m285.81,105.6l-3.12,2.66-18.17-10.49c-.42-.25-.79-.69-1.08-1.34-.05-.1-.07-.18-.11-.28l3.23-2.38c.31.65.67,1.1,1.1,1.34l18.16,10.49Z"/><path class="cls-14" d="m298.31,102.89l-4.96-2.86v-34.09c0-.65-.15-1.3-.46-1.95-.31-.65-.67-1.1-1.1-1.34l-8.71-5.03c-.16-.09-.28-.13-.42-.19l-15.83,21.59c-.5.72-.75,1.85-.75,3.38v9.41c0,.65.15,1.3.46,1.95.31.65.67,1.1,1.1,1.34l18.16,10.49v9.06c0,.65.15,1.3.46,1.95.31.65.67,1.1,1.1,1.34l5.99,3.46v-6.98h0l3.12-2.66,3.39,1.96v-7.53c0-.65-.15-1.3-.46-1.95-.31-.65-.67-1.1-1.1-1.34Zm-12.21-11.33l-3.12,2.48h0l-8.42-4.86,8.42-11.47h0l3.12-2.48v16.33Z"/><path class="cls-19" d="m364.44,166.91c-.42-.24-.79-.69-1.1-1.34-.31-.65-.46-1.3-.46-1.95v-9.06l-18.16-10.49c-.42-.24-.79-.69-1.1-1.34-.31-.65-.46-1.3-.46-1.95v-9.41c0-1.54.25-2.67.75-3.38l17.24-23.51c.35-.45.66-.7.95-.74s.68.08,1.18.37l8.71,5.03c.42.24.79.69,1.1,1.34.31.65.46,1.3.46,1.95v34.09l4.96,2.86c.42.24.79.69,1.1,1.34.31.65.46,1.3.46,1.95v9.41c0,.65-.15,1.12-.46,1.42-.31.3-.67.32-1.1.08l-4.96-2.86v9.05c0,.65-.15,1.13-.46,1.42-.31.3-.67.32-1.1.08l-7.55-4.36Zm-1.27-26.39v-16.33l-8.42,11.47,8.42,4.86Zm-.29,14.04"/><path class="cls-6" d="m379.6,163.5c.31-.29.46-.77.46-1.42v-2.07l-3.39-1.96-3.12,2.66,4.96,2.86c.42.24.79.22,1.1-.08Z"/><path class="cls-6" d="m373.55,167.7v2.07c0,.65-.16,1.12-.47,1.42s-.67.32-1.1.07l-7.54-4.35c-.42-.25-.79-.69-1.1-1.34-.02-.06-.04-.11-.06-.16l3.12-2.66s.04.11.06.16c.31.64.68,1.1,1.1,1.34l5.99,3.45Z"/><path class="cls-6" d="m366.01,151.9l-3.12,2.66-18.17-10.49c-.42-.25-.79-.69-1.08-1.34-.05-.1-.07-.18-.11-.28l3.23-2.38c.31.65.67,1.1,1.1,1.34l18.16,10.49Z"/><path class="cls-14" d="m378.51,149.19l-4.96-2.86v-34.09c0-.65-.15-1.3-.46-1.95-.31-.65-.67-1.1-1.1-1.34l-8.71-5.03c-.16-.09-.28-.13-.42-.19l-15.83,21.59c-.5.72-.75,1.85-.75,3.38v9.41c0,.65.15,1.3.46,1.95.31.65.67,1.1,1.1,1.34l18.16,10.49v9.06c0,.65.15,1.3.46,1.95.31.65.67,1.1,1.1,1.34l5.99,3.46v-6.98h0l3.12-2.66,3.39,1.96v-7.53c0-.65-.15-1.3-.46-1.95-.31-.65-.67-1.1-1.1-1.34Zm-12.21-11.33l-3.12,2.48h0l-8.42-4.86,8.42-11.47h0l3.12-2.48v16.33Z"/><path class="cls-5" d="m268.43,138.21c.08.05.15.13.21.26.06.13.09.25.09.38v1.81c0,.13-.03.22-.09.27-.06.06-.13.06-.21.02l-5.26-3.04c-.08-.05-.15-.13-.21-.26-.06-.12-.09-.25-.09-.37v-11.03c0-.13.03-.22.09-.27.06-.06.13-.06.21-.01l5.17,2.99c.08.05.15.13.21.26.06.13.09.25.09.38v1.81c0,.13-.03.22-.09.27s-.13.06-.21.02l-3.42-1.97v1.84l3.17,1.83c.08.05.15.13.21.26.06.13.09.25.09.37v1.81c0,.13-.03.22-.09.27-.06.06-.13.06-.21.02l-3.17-1.83v1.91l3.51,2.02Z"/><path class="cls-5" d="m273.9,135.21c.08.05.15.13.21.26.06.13.09.25.09.38v1.73c0,.13-.03.22-.09.27-.06.06-.13.06-.21.01l-1.01-.58c-.68-.39-1.02-.06-1.02.98v4.2c0,.13-.03.22-.09.27-.06.06-.13.06-.21.02l-1.4-.81c-.08-.05-.15-.13-.21-.26-.06-.12-.09-.25-.09-.37v-7.96c0-.13.03-.22.09-.27.06-.06.13-.06.21-.01l1.29.74c.08.05.15.13.21.26.06.13.09.25.09.38v.39c.17-.15.38-.24.62-.26.24-.02.53.06.86.26l.67.38Z"/><path class="cls-5" d="m278.99,138.16c.08.05.15.13.21.26.06.13.09.25.09.38v1.73c0,.13-.03.22-.09.27-.06.06-.13.06-.21.01l-1.01-.58c-.68-.39-1.02-.07-1.02.98v4.2c0,.13-.03.22-.09.27-.06.06-.13.06-.21.02l-1.4-.81c-.08-.05-.15-.13-.21-.26-.06-.13-.09-.25-.09-.38v-7.96c0-.13.03-.22.09-.27.06-.06.13-.06.21-.01l1.29.74c.08.05.15.13.21.26.06.13.09.25.09.38v.39c.17-.15.38-.24.62-.26.24-.02.53.07.86.26l.66.39Z"/><path class="cls-5" d="m285.79,145.87c0,.18.01.4.01.66s0,.48-.01.65c-.01.54-.1,1-.24,1.4-.15.39-.35.69-.61.9-.26.21-.57.31-.94.3-.37,0-.78-.14-1.23-.4-.45-.26-.86-.6-1.23-1.02-.37-.42-.68-.88-.94-1.39-.26-.51-.46-1.04-.61-1.61-.15-.56-.23-1.12-.24-1.68,0-.18-.01-.4-.01-.66s0-.49.01-.65c0-.54.09-1.01.23-1.4.15-.39.35-.69.62-.9.26-.21.58-.31.94-.31.37,0,.77.13,1.23.39.45.26.86.6,1.23,1.02s.68.89.94,1.4c.26.51.47,1.05.61,1.61.14.56.22,1.12.24,1.67Zm-4.04-1.1c.02.45.12.84.31,1.19.18.35.42.61.72.78.3.17.53.19.72.05.18-.14.28-.42.3-.84.02-.16.02-.35.02-.57s0-.41-.02-.59c-.02-.45-.12-.84-.3-1.19-.18-.35-.42-.61-.72-.78-.29-.17-.53-.19-.72-.05-.18.14-.28.42-.31.84-.01.16-.02.35-.02.57s0,.41.02.59Z"/><path class="cls-5" d="m290.86,145.01c.08.05.15.13.21.26.06.13.09.25.09.38v1.73c0,.13-.03.22-.09.27-.06.06-.13.06-.21.01l-1.01-.58c-.68-.39-1.02-.07-1.02.98v4.2c0,.13-.03.22-.09.27-.06.06-.13.06-.21.02l-1.4-.81c-.08-.05-.15-.13-.21-.26-.06-.12-.09-.25-.09-.38v-7.96c0-.13.03-.22.09-.27.06-.06.13-.06.21-.01l1.29.74c.08.05.15.13.21.26.06.13.09.25.09.38v.39c.17-.15.37-.24.62-.26.24-.02.53.06.86.26l.67.38Z"/><path class="cls-5" d="m291.31,151.65c.01-.15.06-.27.14-.37.08-.1.19-.1.34-.02l1.37.79c.07.04.12.11.17.21.05.1.07.2.07.31,0,.05,0,.08-.01.11l-.87,2.9c-.03.1-.08.19-.15.27-.07.08-.18.08-.33,0l-.83-.48c-.07-.04-.12-.11-.17-.21-.05-.1-.07-.2-.07-.31v-.03l.34-3.17Z"/><path class="cls-5" d="m300.3,159.51c-.21-.12-.4-.27-.57-.43-.16-.16-.3-.33-.42-.5-.12-.17-.22-.34-.3-.51-.08-.17-.15-.32-.2-.45v3.64c0,.13-.03.22-.09.27-.06.06-.13.06-.21.02l-1.4-.81c-.08-.05-.15-.13-.21-.26-.06-.13-.09-.25-.09-.38v-11.21c0-.13.03-.22.09-.27.06-.06.13-.06.21-.01l1.34.78c.08.05.15.13.21.26.06.13.09.25.09.38v.39c.07-.07.14-.15.22-.23.08-.08.17-.14.29-.17.12-.03.26-.03.42,0,.17.03.37.12.62.26.33.19.65.45.94.77.3.32.55.71.78,1.17.22.45.4.96.54,1.53.14.57.21,1.19.23,1.87,0,.17.01.41.01.7s0,.52-.01.69c-.02.66-.09,1.2-.23,1.61-.14.41-.32.71-.54.91s-.48.29-.78.28c-.3-.01-.61-.11-.94-.3Zm.5-3.85c.02-.31.02-.62,0-.96-.02-.41-.11-.81-.26-1.19-.15-.38-.4-.67-.74-.87-.16-.09-.3-.13-.42-.12-.12.01-.22.06-.29.15-.08.09-.14.2-.18.33-.04.13-.07.28-.09.44-.01.16-.02.36-.02.59s0,.43.02.61c.02.18.04.36.09.55.04.19.11.36.18.54.08.18.18.34.29.49.12.15.26.27.42.36.35.2.59.2.74-.01.15-.21.23-.51.26-.9Z"/><path class="cls-5" d="m303.48,158.65c0-.75.19-1.26.56-1.54.37-.27.98-.28,1.83-.02l1.3.41c0-.27-.05-.53-.14-.76-.1-.23-.26-.42-.5-.55-.17-.1-.3-.14-.39-.11-.09.02-.16.05-.21.08-.07.05-.13.07-.19.06-.06-.01-.13-.04-.21-.09l-1.41-.81c-.07-.04-.13-.11-.18-.21-.05-.1-.07-.2-.06-.31.02-.25.09-.49.22-.69.13-.21.32-.36.55-.47.23-.11.51-.14.83-.12.32.03.67.15,1.05.37.45.26.84.57,1.18.94.33.36.61.76.83,1.19.22.43.38.88.48,1.35.1.48.15.97.15,1.47v5.18c0,.13-.03.22-.09.27-.06.06-.13.06-.21.02l-1.4-.81c-.08-.05-.15-.13-.21-.26-.06-.13-.09-.25-.09-.38v-.48c-.18.24-.4.38-.66.43-.26.05-.61-.05-1.04-.3-.32-.18-.6-.42-.85-.69-.25-.28-.45-.59-.62-.92-.17-.33-.29-.69-.38-1.08-.09-.38-.13-.77-.13-1.15Zm2.53,1.85c.16.09.31.14.46.13.14,0,.26-.05.37-.14.1-.09.19-.21.24-.38.06-.16.09-.36.09-.59l-1.02-.35c-.2-.06-.36-.05-.48.01-.12.07-.18.21-.18.42s.05.39.14.53c.09.14.22.26.39.36Z"/><path class="cls-5" d="m313.13,167.94c.28.16.53.21.74.13.22-.08.32-.31.32-.71v-1.19c-.07.09-.14.17-.22.24-.08.07-.17.13-.29.16-.11.03-.25.03-.42,0-.17-.03-.37-.12-.62-.26-.33-.19-.65-.45-.94-.77-.3-.33-.55-.71-.78-1.16-.22-.45-.4-.95-.54-1.51-.14-.56-.21-1.16-.23-1.82,0-.18-.01-.38-.01-.61s0-.43.01-.6c.01-.64.09-1.16.23-1.57.14-.41.32-.7.54-.89.22-.18.48-.27.78-.26.3.01.61.11.94.31.24.14.46.3.63.47.18.17.33.34.46.52.13.18.23.35.31.51.08.17.15.32.2.45v-.39c0-.13.03-.22.09-.27.06-.06.13-.06.21-.01l1.29.74c.08.05.15.13.21.26.06.13.09.25.09.38v8.32c0,.64-.08,1.15-.23,1.55-.15.4-.36.68-.63.85-.27.17-.59.23-.95.17-.37-.05-.78-.21-1.22-.46-.58-.33-1.05-.72-1.42-1.15-.37-.43-.65-.87-.86-1.3-.21-.43-.35-.84-.43-1.23-.08-.39-.13-.71-.13-.97,0-.13.02-.22.08-.28.06-.06.14-.06.22-.01l1.44.83c.16.09.27.27.34.54.05.18.13.36.24.53.11.18.29.34.54.48Zm-.98-6.8c-.02.16-.02.3-.02.41s0,.25.02.43c.02.41.11.79.27,1.15.16.35.4.62.73.81.3.18.53.18.69.02.16-.16.26-.4.29-.71.04-.33.04-.69,0-1.08-.03-.35-.13-.69-.29-1.04-.16-.34-.4-.6-.7-.78-.32-.18-.56-.19-.72-.03-.16.16-.26.44-.28.82Z"/><path class="cls-5" d="m319.15,166.76c0,.26.03.5.09.7s.14.39.24.55c.1.16.2.29.32.4.12.11.23.19.34.26.22.13.4.2.53.2.13,0,.24-.03.33-.1.08-.06.14-.09.18-.09.04,0,.1.01.19.06l1.44.83c.16.09.24.27.24.52,0,.13-.06.31-.17.53-.11.22-.28.4-.52.56-.23.16-.53.24-.9.24-.37,0-.81-.14-1.32-.44-.48-.28-.91-.63-1.28-1.06-.37-.43-.69-.91-.94-1.46-.26-.55-.45-1.14-.58-1.79-.13-.64-.19-1.32-.19-2.04,0-.66.06-1.24.19-1.72.13-.49.32-.87.58-1.13.25-.26.57-.4.94-.42.37-.02.8.11,1.28.39.54.31,1,.72,1.38,1.21.38.5.69,1.04.93,1.62.24.58.41,1.18.52,1.8s.16,1.19.16,1.74v.48c0,.13-.03.22-.09.27-.06.06-.13.06-.21.01l-3.69-2.13Zm1-2.71c-.31-.18-.55-.17-.71.02-.16.19-.26.46-.29.79l2,1.15c-.03-.37-.13-.75-.29-1.12-.16-.38-.4-.66-.71-.84Z"/><path class="cls-5" d="m332.42,177.43c0,.13-.03.22-.09.27-.06.06-.13.06-.21.02l-1.4-.81c-.08-.05-.15-.13-.21-.26-.06-.12-.09-.25-.09-.37v-4.32c0-.49-.08-.93-.23-1.31s-.4-.68-.73-.87c-.33-.19-.58-.18-.73.02-.15.21-.23.56-.23,1.05v4.32c0,.13-.03.22-.09.27-.06.06-.13.06-.21.01l-1.4-.81c-.08-.05-.15-.13-.21-.26-.06-.12-.09-.25-.09-.38v-7.96c0-.13.03-.22.09-.27.06-.06.13-.06.21-.01l1.34.78c.08.05.15.13.21.26.06.13.09.25.09.38v.39c.06-.08.13-.16.22-.23s.2-.12.32-.15c.13-.03.27-.02.44.01.17.03.36.11.58.24.36.2.68.47.98.79.3.33.55.71.76,1.15.21.44.37.94.49,1.5.12.56.18,1.17.18,1.85v4.7Z"/><path class="cls-5" d="m339.45,176.85c0,.18.01.4.01.66s0,.48-.01.65c-.01.54-.1,1-.24,1.4-.15.39-.35.69-.61.9-.26.21-.57.31-.94.3-.37,0-.77-.14-1.23-.4-.45-.26-.86-.6-1.23-1.02-.37-.42-.68-.88-.94-1.39-.26-.51-.46-1.04-.61-1.61-.15-.56-.23-1.12-.24-1.68,0-.18-.01-.4-.01-.66s0-.48.01-.65c0-.54.09-1.01.23-1.4.15-.39.35-.69.62-.9.26-.21.58-.31.94-.31.37,0,.78.13,1.23.39.45.26.86.6,1.23,1.02.37.42.68.89.94,1.4.26.51.47,1.05.61,1.61.14.56.22,1.12.24,1.67Zm-4.04-1.1c.02.45.12.84.31,1.19.18.35.42.61.72.78.3.17.53.19.72.05.18-.14.28-.42.31-.84.01-.16.02-.35.02-.57s0-.41-.02-.59c-.02-.44-.12-.84-.31-1.19-.18-.35-.42-.61-.72-.78-.3-.17-.53-.19-.72-.05-.18.14-.28.42-.31.84-.01.16-.02.35-.02.57s0,.41.02.59Z"/><path class="cls-5" d="m343.1,180.58c0,.26.04.49.11.67.07.19.2.33.37.43l.89.51c.08.05.15.13.21.26.06.13.09.25.09.38v1.73c0,.13-.03.22-.09.27-.06.06-.13.06-.21.02l-1.05-.61c-.35-.2-.66-.46-.95-.78-.28-.32-.53-.68-.73-1.08-.2-.41-.35-.85-.47-1.33-.11-.48-.17-.98-.17-1.5v-2.87l-.82-.47c-.08-.05-.15-.13-.21-.26-.06-.13-.09-.25-.09-.38v-1.73c0-.13.03-.22.09-.27.06-.06.13-.06.21-.01l.82.47v-2.78c0-.13.03-.22.09-.27.06-.06.13-.06.21-.01l1.4.81c.08.05.15.13.21.26.06.13.09.25.09.38v2.78l1.25.72c.08.05.15.13.21.26.06.13.09.25.09.38v1.73c0,.13-.03.22-.09.27-.06.06-.13.06-.21.01l-1.25-.72v2.77Z"/><path class="cls-5" d="m350.56,179.48l1.37.79c.08.05.15.13.21.26.06.13.09.25.09.38v1.73c0,.13-.03.22-.09.27-.06.06-.13.06-.21.01l-1.37-.79v5.77c0,.13-.03.22-.09.27-.06.06-.13.06-.21.01l-1.4-.81c-.08-.05-.15-.13-.21-.26-.06-.12-.09-.25-.09-.38v-5.77l-.77-.44c-.08-.05-.15-.13-.21-.26-.06-.13-.09-.25-.09-.38v-1.73c0-.13.03-.22.09-.27.06-.06.13-.06.21-.01l.77.44v-.46c0-.52.06-.95.18-1.3.12-.34.29-.59.5-.74.21-.16.47-.22.77-.2.3.02.62.13.97.33l1.05.61c.08.05.15.13.21.26.06.13.09.25.09.37v1.73c0,.13-.03.22-.09.27-.06.06-.13.06-.21.01l-1-.58c-.18-.1-.3-.11-.37,0-.07.1-.11.25-.11.47v.38Z"/><path class="cls-5" d="m358.76,188c0,.18.01.4.01.66s0,.48-.01.65c-.01.54-.1,1-.24,1.4-.15.39-.35.69-.61.9-.26.21-.57.31-.94.3-.37,0-.78-.14-1.23-.4-.45-.26-.86-.6-1.23-1.02-.37-.42-.68-.88-.94-1.39-.26-.51-.46-1.04-.61-1.61-.15-.56-.23-1.12-.24-1.68,0-.18-.01-.4-.01-.66s0-.48.01-.65c0-.54.08-1.01.23-1.4.15-.39.35-.69.62-.9.26-.21.58-.31.94-.31.37,0,.78.13,1.23.39.45.26.86.6,1.23,1.02.36.42.68.89.94,1.4.26.51.47,1.05.61,1.61.14.56.22,1.12.24,1.67Zm-4.04-1.1c.02.45.13.84.31,1.19.18.35.42.61.72.78.3.17.53.19.72.05.18-.14.28-.42.3-.84.01-.16.02-.35.02-.57s0-.41-.02-.59c-.02-.44-.12-.84-.3-1.19-.18-.35-.42-.61-.72-.78-.29-.17-.53-.19-.72-.05-.18.14-.28.42-.31.84-.01.16-.02.35-.02.57s0,.41.02.59Z"/><path class="cls-5" d="m359.75,185.24c0-.13.03-.22.09-.27.06-.06.13-.06.21-.01l1.4.81c.08.05.15.13.21.26.06.13.09.25.09.38v4.32c0,.49.07.92.21,1.3.14.38.37.66.7.85.33.19.56.17.69-.04.14-.22.2-.57.2-1.06v-4.32c0-.13.03-.22.09-.27.06-.06.13-.06.21-.01l1.4.81c.08.05.15.13.21.26.06.13.09.25.09.38v7.96c0,.13-.03.22-.09.27-.06.06-.13.06-.21.02l-1.29-.74c-.08-.05-.15-.13-.21-.26-.06-.12-.09-.25-.09-.37v-.39c-.06.09-.13.17-.22.24-.09.07-.19.12-.32.14-.13.02-.27.02-.44-.01-.17-.03-.36-.12-.59-.25-.72-.41-1.29-1.06-1.71-1.93-.43-.87-.64-1.98-.64-3.32v-4.7Z"/><path class="cls-5" d="m372.75,200.71c0,.13-.03.22-.09.27-.06.06-.13.06-.21.02l-1.4-.81c-.08-.05-.15-.13-.21-.26-.06-.12-.09-.25-.09-.37v-4.32c0-.49-.08-.93-.23-1.31-.16-.39-.4-.67-.73-.87-.33-.19-.58-.18-.73.02-.15.21-.23.56-.23,1.05v4.32c0,.13-.03.22-.09.27-.06.06-.13.06-.21.02l-1.4-.81c-.08-.05-.15-.13-.21-.26-.06-.12-.09-.25-.09-.38v-7.96c0-.13.03-.22.09-.27.06-.06.13-.06.21-.01l1.34.78c.08.05.15.13.21.26.06.13.09.25.09.38v.39c.06-.08.13-.16.22-.23.09-.07.2-.12.32-.15.13-.02.27-.02.44.01.17.03.36.11.58.24.36.2.68.47.98.79.29.33.55.71.76,1.15.21.44.38.94.49,1.5s.18,1.17.18,1.85v4.7Z"/><path class="cls-5" d="m376.25,194.14c.22.12.4.27.57.43.16.16.3.33.42.5.12.17.22.34.3.51.08.17.15.32.2.45v-3.64c0-.13.03-.22.09-.27.06-.06.13-.06.21-.01l1.4.81c.08.05.15.13.21.26.06.13.09.25.09.38v11.21c0,.13-.03.22-.09.27-.06.06-.13.06-.21.02l-1.34-.78c-.08-.05-.15-.13-.21-.26-.06-.13-.09-.25-.09-.38v-.39c-.07.09-.14.17-.22.24-.08.07-.17.13-.29.16-.11.03-.26.03-.42,0-.17-.03-.37-.12-.62-.26-.33-.19-.65-.45-.94-.78-.3-.32-.55-.71-.78-1.17-.22-.45-.4-.96-.54-1.53-.14-.57-.21-1.19-.23-1.87,0-.18-.01-.41-.01-.7s0-.52.01-.68c.01-.66.09-1.2.23-1.61.14-.41.32-.71.54-.91.22-.2.48-.29.78-.28.3.01.61.11.94.31Zm-.5,3.85c-.02.31-.02.62,0,.96.02.41.11.81.25,1.19.15.38.4.67.74.87.16.09.3.13.42.12.12-.01.22-.06.29-.15.08-.09.14-.2.18-.33.04-.13.07-.28.09-.44.01-.16.02-.36.02-.59s0-.43-.02-.61c-.01-.18-.04-.36-.09-.55-.04-.19-.1-.36-.18-.54-.08-.18-.18-.34-.29-.49-.12-.15-.26-.27-.42-.36-.35-.2-.59-.2-.74.01-.15.21-.23.51-.25.9Z"/></g></g></svg>