<svg id="calculadora_1_" data-name="calculadora (1)" xmlns="http://www.w3.org/2000/svg" width="22.498" height="30" viewBox="0 0 22.498 30">
  <g id="Group_1300" data-name="Group 1300" transform="translate(5.23 4.905)">
    <g id="Group_1299" data-name="Group 1299" transform="translate(0)">
      <path id="Path_30593" data-name="Path 30593" d="M153.435,78.594H152V77.164a.413.413,0,1,0-.825,0v1.431h-1.431a.413.413,0,1,0,0,.825h1.431v1.431a.413.413,0,1,0,.825,0V79.42h1.431a.413.413,0,0,0,0-.825Z" transform="translate(-149.335 -76.751)" fill="#222"/>
    </g>
  </g>
  <g id="Group_1302" data-name="Group 1302" transform="translate(2.221 2.711)">
    <g id="Group_1301" data-name="Group 1301" transform="translate(0)">
      <path id="Path_30594" data-name="Path 30594" d="M112.527,37.89H96.92A1.229,1.229,0,0,0,95.7,39.121v6.452A1.229,1.229,0,0,0,96.92,46.8h15.607a1.229,1.229,0,0,0,1.224-1.231V39.121h0A1.229,1.229,0,0,0,112.527,37.89Zm0,8.089H96.92a.405.405,0,0,1-.4-.406V39.121a.405.405,0,0,1,.4-.406h15.607a.405.405,0,0,1,.4.406v6.452h0A.405.405,0,0,1,112.527,45.979Z" transform="translate(-95.696 -37.89)" fill="#222"/>
    </g>
  </g>
  <g id="Group_1304" data-name="Group 1304" transform="translate(0 4.37)">
    <g id="Group_1303" data-name="Group 1303" transform="translate(0 0)">
      <path id="Path_30595" data-name="Path 30595" d="M86.088,146.088a.474.474,0,0,0-.427.51v22.666a1.333,1.333,0,0,1-1.2,1.433H66.07a1.333,1.333,0,0,1-1.2-1.433v-4.877a.434.434,0,1,0-.854,0v4.877a2.283,2.283,0,0,0,2.052,2.454H84.462a2.283,2.283,0,0,0,2.052-2.454V146.6A.474.474,0,0,0,86.088,146.088Z" transform="translate(-64.017 -146.088)" fill="#222"/>
    </g>
  </g>
  <g id="Group_1306" data-name="Group 1306" transform="translate(0)">
    <g id="Group_1305" data-name="Group 1305" transform="translate(0)">
      <path id="Path_30596" data-name="Path 30596" d="M84.463,0H66.07a2.19,2.19,0,0,0-2.052,2.3V23.727a.43.43,0,1,0,.854,0V2.3a1.279,1.279,0,0,1,1.2-1.343H84.463a1.279,1.279,0,0,1,1.2,1.343V7.048a.43.43,0,1,0,.854,0V2.3A2.19,2.19,0,0,0,84.463,0Z" transform="translate(-64.018)" fill="#222"/>
    </g>
  </g>
  <g id="Group_1308" data-name="Group 1308" transform="translate(2.221 12.696)">
    <g id="Group_1307" data-name="Group 1307" transform="translate(0)">
      <path id="Path_30597" data-name="Path 30597" d="M98.53,215.358H96.622a.928.928,0,0,0-.926.926v1.907a.928.928,0,0,0,.926.927H98.53a.928.928,0,0,0,.927-.927v-1.907A.928.928,0,0,0,98.53,215.358Zm.1,2.834a.1.1,0,0,1-.1.1H96.622a.1.1,0,0,1-.1-.1v-1.907a.1.1,0,0,1,.1-.1H98.53a.1.1,0,0,1,.1.1Z" transform="translate(-95.696 -215.358)" fill="#222"/>
    </g>
  </g>
  <g id="Group_1310" data-name="Group 1310" transform="translate(6.983 12.695)">
    <g id="Group_1309" data-name="Group 1309">
      <path id="Path_30598" data-name="Path 30598" d="M183.27,215.357h-1.907a.928.928,0,0,0-.926.926v1.907a.928.928,0,0,0,.926.927h1.907a.928.928,0,0,0,.927-.927v-1.907A.928.928,0,0,0,183.27,215.357Zm.1,2.834a.1.1,0,0,1-.1.1h-1.907a.1.1,0,0,1-.1-.1v-1.907a.1.1,0,0,1,.1-.1h1.907a.1.1,0,0,1,.1.1Z" transform="translate(-180.436 -215.357)" fill="#222"/>
    </g>
  </g>
  <g id="Group_1312" data-name="Group 1312" transform="translate(11.755 12.695)">
    <g id="Group_1311" data-name="Group 1311">
      <path id="Path_30599" data-name="Path 30599" d="M268.01,215.357H266.1a.928.928,0,0,0-.927.926v1.907a.928.928,0,0,0,.927.927h1.907a.928.928,0,0,0,.927-.927v-1.907A.928.928,0,0,0,268.01,215.357Zm.1,2.834a.1.1,0,0,1-.1.1H266.1a.1.1,0,0,1-.1-.1v-1.907a.1.1,0,0,1,.1-.1h1.907a.1.1,0,0,1,.1.1Z" transform="translate(-265.176 -215.357)" fill="#222"/>
    </g>
  </g>
  <g id="Group_1314" data-name="Group 1314" transform="translate(16.517 12.695)">
    <g id="Group_1313" data-name="Group 1313" transform="translate(0)">
      <path id="Path_30600" data-name="Path 30600" d="M352.75,215.357h-1.907a.928.928,0,0,0-.927.926v1.907a.928.928,0,0,0,.927.927h1.907a.928.928,0,0,0,.926-.927v-1.907A.928.928,0,0,0,352.75,215.357Zm.1,2.834a.1.1,0,0,1-.1.1h-1.907a.1.1,0,0,1-.1-.1v-1.907a.1.1,0,0,1,.1-.1h1.907a.1.1,0,0,1,.1.1Z" transform="translate(-349.916 -215.357)" fill="#222"/>
    </g>
  </g>
  <g id="Group_1316" data-name="Group 1316" transform="translate(2.221 17.566)">
    <g id="Group_1315" data-name="Group 1315" transform="translate(0)">
      <path id="Path_30601" data-name="Path 30601" d="M98.53,301.824H96.622a.928.928,0,0,0-.926.926v1.907a.928.928,0,0,0,.926.927H98.53a.928.928,0,0,0,.927-.927V302.75A.928.928,0,0,0,98.53,301.824Zm.1,2.834a.1.1,0,0,1-.1.1H96.622a.1.1,0,0,1-.1-.1V302.75a.1.1,0,0,1,.1-.1H98.53a.1.1,0,0,1,.1.1Z" transform="translate(-95.696 -301.824)" fill="#222"/>
    </g>
  </g>
  <g id="Group_1318" data-name="Group 1318" transform="translate(6.983 17.566)">
    <g id="Group_1317" data-name="Group 1317">
      <path id="Path_30602" data-name="Path 30602" d="M183.27,301.824h-1.907a.928.928,0,0,0-.926.926v1.907a.928.928,0,0,0,.926.927h1.907a.928.928,0,0,0,.927-.927V302.75A.928.928,0,0,0,183.27,301.824Zm.1,2.834a.1.1,0,0,1-.1.1h-1.907a.1.1,0,0,1-.1-.1V302.75a.1.1,0,0,1,.1-.1h1.907a.1.1,0,0,1,.1.1Z" transform="translate(-180.436 -301.824)" fill="#222"/>
    </g>
  </g>
  <g id="Group_1320" data-name="Group 1320" transform="translate(11.755 17.566)">
    <g id="Group_1319" data-name="Group 1319">
      <path id="Path_30603" data-name="Path 30603" d="M268.01,301.824H266.1a.928.928,0,0,0-.927.926v1.907a.928.928,0,0,0,.927.927h1.907a.928.928,0,0,0,.927-.927V302.75A.928.928,0,0,0,268.01,301.824Zm.1,2.834a.1.1,0,0,1-.1.1H266.1a.1.1,0,0,1-.1-.1V302.75a.1.1,0,0,1,.1-.1h1.907a.1.1,0,0,1,.1.1Z" transform="translate(-265.176 -301.824)" fill="#222"/>
    </g>
  </g>
  <g id="Group_1322" data-name="Group 1322" transform="translate(2.221 22.419)">
    <g id="Group_1321" data-name="Group 1321" transform="translate(0)">
      <path id="Path_30604" data-name="Path 30604" d="M98.53,388.291H96.622a.928.928,0,0,0-.926.927v1.907a.928.928,0,0,0,.926.926H98.53a.928.928,0,0,0,.927-.926v-1.907A.928.928,0,0,0,98.53,388.291Zm.1,2.834a.1.1,0,0,1-.1.1H96.622a.1.1,0,0,1-.1-.1v-1.907a.1.1,0,0,1,.1-.1H98.53a.1.1,0,0,1,.1.1Z" transform="translate(-95.696 -388.291)" fill="#222"/>
    </g>
  </g>
  <g id="Group_1324" data-name="Group 1324" transform="translate(6.983 22.419)">
    <g id="Group_1323" data-name="Group 1323">
      <path id="Path_30605" data-name="Path 30605" d="M183.27,388.291h-1.907a.928.928,0,0,0-.926.927v1.907a.928.928,0,0,0,.926.926h1.907a.928.928,0,0,0,.927-.926v-1.907A.928.928,0,0,0,183.27,388.291Zm.1,2.834a.1.1,0,0,1-.1.1h-1.907a.1.1,0,0,1-.1-.1v-1.907a.1.1,0,0,1,.1-.1h1.907a.1.1,0,0,1,.1.1Z" transform="translate(-180.436 -388.291)" fill="#222"/>
    </g>
  </g>
  <g id="Group_1326" data-name="Group 1326" transform="translate(11.755 22.419)">
    <g id="Group_1325" data-name="Group 1325">
      <path id="Path_30606" data-name="Path 30606" d="M268.01,388.291H266.1a.928.928,0,0,0-.927.927v1.907a.928.928,0,0,0,.927.926h1.907a.928.928,0,0,0,.927-.926v-1.907A.928.928,0,0,0,268.01,388.291Zm.1,2.834a.1.1,0,0,1-.1.1H266.1a.1.1,0,0,1-.1-.1v-1.907a.1.1,0,0,1,.1-.1h1.907a.1.1,0,0,1,.1.1Z" transform="translate(-265.176 -388.291)" fill="#222"/>
    </g>
  </g>
  <g id="Group_1328" data-name="Group 1328" transform="translate(16.516 17.522)">
    <g id="Group_1327" data-name="Group 1327">
      <path id="Path_30607" data-name="Path 30607" d="M352.749,301.824h-1.907a.928.928,0,0,0-.926.926v6.8a.928.928,0,0,0,.926.927h1.907a.928.928,0,0,0,.927-.927v-6.8A.928.928,0,0,0,352.749,301.824Zm.1,7.731a.1.1,0,0,1-.1.1h-1.907a.1.1,0,0,1-.1-.1v-6.8a.1.1,0,0,1,.1-.1h1.907a.1.1,0,0,1,.1.1Z" transform="translate(-349.915 -301.824)" fill="#222"/>
    </g>
  </g>
  <g id="Group_1330" data-name="Group 1330" transform="translate(13.485 4.599)">
    <g id="Group_1329" data-name="Group 1329">
      <path id="Path_30608" data-name="Path 30608" d="M297.525,73.529V72.243c.444.032.608.234.76.234.19,0,.279-.241.279-.361,0-.31-.608-.443-1.039-.456v-.171c0-.076-.095-.146-.19-.146a.167.167,0,0,0-.184.146v.184a1.176,1.176,0,0,0-1.2,1.178c0,.811.634,1.039,1.2,1.242v1.489c-.646-.051-.817-.494-1.026-.494-.158,0-.291.209-.291.361,0,.31.532.735,1.318.748v.2a.167.167,0,0,0,.184.146c.1,0,.19-.07.19-.146v-.215a1.227,1.227,0,0,0,1.153-1.305C298.678,74.01,298.077,73.731,297.525,73.529Zm-.336-.12c-.336-.127-.608-.26-.608-.621,0-.329.253-.488.608-.532Zm.3,2.16V74.232a.741.741,0,0,1,.557.71A.6.6,0,0,1,297.487,75.569Z" transform="translate(-295.834 -71.343)" fill="#222"/>
    </g>
  </g>
</svg>
