<svg xmlns="http://www.w3.org/2000/svg" width="50.5" height="50.5" viewBox="0 0 50.5 50.5">
  <g id="calendar12" transform="translate(-0.75 0.25)">
    <path id="Path_30552" data-name="Path 30552" d="M44.629,5.859H41.113V4.395a4.395,4.395,0,1,0-8.789,0V5.859H17.676V4.395a4.395,4.395,0,0,0-8.789,0V5.859H5.371A5.377,5.377,0,0,0,0,11.23v33.4A5.377,5.377,0,0,0,5.371,50H44.629A5.377,5.377,0,0,0,50,44.629V11.23A5.377,5.377,0,0,0,44.629,5.859ZM35.254,4.395a1.465,1.465,0,0,1,2.93,0v5.859a1.465,1.465,0,0,1-2.93,0Zm-23.437,0a1.465,1.465,0,0,1,2.93,0v5.859a1.465,1.465,0,0,1-2.93,0ZM2.93,11.23A2.444,2.444,0,0,1,5.371,8.789H8.887v1.465a4.395,4.395,0,0,0,8.789,0V8.789H32.324v1.465a4.395,4.395,0,1,0,8.789,0V8.789h3.516A2.444,2.444,0,0,1,47.07,11.23v6.543H2.93Zm44.141,33.4a2.444,2.444,0,0,1-2.441,2.441H5.371A2.444,2.444,0,0,1,2.93,44.629V20.7H47.07Z" transform="translate(1)" fill="#48be5a" stroke="#fff" stroke-width="0.5"/>
    <text id="_12" data-name="12" transform="translate(12.5 41.959)" fill="#31823e" font-size="23" font-family="Noto Sans, sans-serif" font-weight="700"><tspan x="0" y="0">12</tspan></text>
  </g>
</svg>
