<svg xmlns="http://www.w3.org/2000/svg" width="102.68" height="30" viewBox="0 0 102.68 30">
  <g id="Group_1593" data-name="Group 1593" transform="translate(-572.66 -76)">
    <g id="logo" transform="translate(281.36 56)">
      <g id="Group_1295" data-name="Group 1295" transform="translate(291.3 26.577)">
        <path id="Path_30566" data-name="Path 30566" d="M1538.935,937.909l-1.411-3.987h-7.7l-1.412,3.987H1526.4l6.488-17.633h1.585l6.464,17.633Zm-5.225-14.933-3.319,9.312h6.588Z" transform="translate(-1526.404 -920.128)" fill="#222"/>
        <path id="Path_30567" data-name="Path 30567" d="M1574.22,954.085a5.38,5.38,0,0,1-4.136-1.634l1.164-1.139a3.752,3.752,0,0,0,2.922,1.214c2.353,0,3.343-1.659,3.343-3.74v-1.907a3.925,3.925,0,0,1-3.418,1.585,4.19,4.19,0,0,1-2.947-1.089c-1.214-1.214-1.486-3.1-1.486-5.077s.272-3.864,1.486-5.077a4.244,4.244,0,0,1,2.972-1.065,3.839,3.839,0,0,1,3.418,1.585V936.3h1.758V948.86C1579.3,951.881,1577.415,954.085,1574.22,954.085Zm.272-16.345c-2.65,0-3.046,2.278-3.046,4.557s.4,4.557,3.046,4.557,3.021-2.279,3.021-4.557S1577.142,937.74,1574.492,937.74Z" transform="translate(-1555.225 -930.662)" fill="#222"/>
        <path id="Path_30568" data-name="Path 30568" d="M1612.758,938.641a2.544,2.544,0,0,0-2.1-.895,2.982,2.982,0,0,0-2.922,3.281v7.506h-1.783V936.3h1.783V937.8a4.088,4.088,0,0,1,3.418-1.64,3.745,3.745,0,0,1,2.922,1.143Z" transform="translate(-1579.357 -930.707)" fill="#222"/>
        <path id="Path_30569" data-name="Path 30569" d="M1630.953,922.208V920.2h2.006v2.006Zm.1,15.652V925.675h1.783V937.86Z" transform="translate(-1596.006 -920.078)" fill="#222"/>
        <path id="Path_30570" data-name="Path 30570" d="M1648.719,937.761a6.391,6.391,0,0,1-4.631-1.882c-1.734-1.734-1.709-3.69-1.709-7.083s-.025-5.349,1.709-7.083a6.39,6.39,0,0,1,4.631-1.882,6.071,6.071,0,0,1,6.29,5.424h-2.724a3.645,3.645,0,0,0-6.166-1.957c-.867.941-1.065,1.957-1.065,5.5s.2,4.557,1.065,5.5a3.524,3.524,0,0,0,2.6,1.065,3.562,3.562,0,0,0,3.591-3.021h2.7A6.087,6.087,0,0,1,1648.719,937.761Z" transform="translate(-1603.606 -919.831)" fill="#222"/>
        <path id="Path_30571" data-name="Path 30571" d="M1688.962,947.791v-1.143a4.122,4.122,0,0,1-3.343,1.292,4.425,4.425,0,0,1-3.368-1.143,3.874,3.874,0,0,1-.991-2.709c0-2.112,1.462-3.628,4.334-3.628h3.319v-.895c0-1.59-.793-2.361-2.749-2.361a2.938,2.938,0,0,0-2.749,1.218l-1.659-1.566c1.189-1.392,2.427-1.814,4.507-1.814,3.442,0,5.176,1.466,5.176,4.324v8.424Zm-.049-5.567h-2.947c-1.486,0-2.254.671-2.254,1.814s.718,1.789,2.3,1.789a2.994,2.994,0,0,0,2.353-.721,2.54,2.54,0,0,0,.545-1.864Z" transform="translate(-1629.49 -929.965)" fill="#222"/>
        <path id="Path_30572" data-name="Path 30572" d="M1726.337,946.781a4.281,4.281,0,0,1-3.046,1.114,3.906,3.906,0,0,1-3.293-1.437v6.365h-2.526V935.191h2.477v1.337a3.863,3.863,0,0,1,3.319-1.486,4.344,4.344,0,0,1,3.071,1.114c1.263,1.263,1.411,3.393,1.411,5.3S1727.6,945.518,1726.337,946.781Zm-3.715-9.485c-2.279,0-2.625,1.932-2.625,4.161s.346,4.185,2.625,4.185,2.6-1.956,2.6-4.185S1724.9,937.3,1722.622,937.3Z" transform="translate(-1653.595 -929.921)" fill="#222"/>
        <path id="Path_30573" data-name="Path 30573" d="M1752.346,922.728v-2.675h2.675v2.675Zm.074,15.033V925.2h2.526V937.76Z" transform="translate(-1676.821 -919.979)" fill="#222"/>
        <path id="Path_30574" data-name="Path 30574" d="M1767.686,940.875a3.268,3.268,0,0,1-3.443-3.492v-6.909h-1.436v-1.932h1.436v-3.814h2.526v3.814h2.427v1.932h-2.427v6.785a1.276,1.276,0,0,0,1.387,1.461h1.04v2.155Z" transform="translate(-1683.78 -923.094)" fill="#222"/>
        <path id="Path_30575" data-name="Path 30575" d="M1790.321,947.791v-1.143a4.122,4.122,0,0,1-3.343,1.292,4.425,4.425,0,0,1-3.368-1.143,3.874,3.874,0,0,1-.991-2.709c0-2.112,1.461-3.628,4.334-3.628h3.319v-.895c0-1.59-.793-2.361-2.749-2.361a2.938,2.938,0,0,0-2.749,1.218l-1.659-1.566c1.189-1.392,2.427-1.814,4.507-1.814,3.442,0,5.176,1.466,5.176,4.324v8.424Zm-.049-5.567h-2.947c-1.486,0-2.254.671-2.254,1.814s.718,1.789,2.3,1.789a2.993,2.993,0,0,0,2.353-.721,2.539,2.539,0,0,0,.545-1.864Z" transform="translate(-1696.953 -929.965)" fill="#222"/>
        <path id="Path_30576" data-name="Path 30576" d="M1822.05,937.909a3.2,3.2,0,0,1-3.442-3.467V920.276h2.526v14.017c0,.966.347,1.461,1.362,1.461h1.114v2.155Z" transform="translate(-1720.93 -920.128)" fill="#222"/>
      </g>
      <g id="Group_1296" data-name="Group 1296" transform="translate(336.422 20)">
        <path id="Path_30577" data-name="Path 30577" d="M1694.283,905.715c-11.81-3.671-15.1-1.719-21.177,1.135a13.1,13.1,0,0,0-2.87-1.781,9.52,9.52,0,0,0-1.282-.468,14.184,14.184,0,0,0-3.924-.495,12.384,12.384,0,0,0-1.791.136,3.955,3.955,0,0,0-.4.052c-.1.021-.2.042-.293.052-.513.126-.932.293-1.247.377.094-.063.2-.126.3-.189a28.381,28.381,0,0,1,26.458-2.1,38.621,38.621,0,0,1,4,1.9q.726.389,1.422.811Z" transform="translate(-1661.3 -900.124)" fill="#fff"/>
        <path id="Path_30578" data-name="Path 30578" d="M1709.56,907.953c-11.81-3.671-15.1-1.719-21.177,1.135a13.1,13.1,0,0,0-2.87-1.781,9.5,9.5,0,0,0-1.282-.468,22.619,22.619,0,0,1,19.108-2.161,38.621,38.621,0,0,1,4,1.9q.726.389,1.422.811Q1709.169,907.661,1709.56,907.953Z" transform="translate(-1676.578 -902.362)" fill="#8fb017"/>
      </g>
    </g>
  </g>
</svg>
