<svg id="Group_1296" data-name="Group 1296" xmlns="http://www.w3.org/2000/svg" width="32.983" height="6.726" viewBox="0 0 32.983 6.726">
  <path id="Path_30577" data-name="Path 30577" d="M1694.283,905.715c-11.81-3.671-15.1-1.719-21.177,1.135a13.1,13.1,0,0,0-2.87-1.781,9.52,9.52,0,0,0-1.282-.468,14.184,14.184,0,0,0-3.924-.495,12.384,12.384,0,0,0-1.791.136,3.955,3.955,0,0,0-.4.052c-.1.021-.2.042-.293.052-.513.126-.932.293-1.247.377.094-.063.2-.126.3-.189a28.381,28.381,0,0,1,26.458-2.1,38.621,38.621,0,0,1,4,1.9q.726.389,1.422.811Z" transform="translate(-1661.3 -900.124)" fill="#fff"/>
  <path id="Path_30578" data-name="Path 30578" d="M1709.56,907.953c-11.81-3.671-15.1-1.719-21.177,1.135a13.1,13.1,0,0,0-2.87-1.781,9.5,9.5,0,0,0-1.282-.468,22.619,22.619,0,0,1,19.108-2.161,38.621,38.621,0,0,1,4,1.9q.726.389,1.422.811Q1709.169,907.661,1709.56,907.953Z" transform="translate(-1676.578 -902.362)" fill="#8fb017"/>
</svg>
