<svg id="home" xmlns="http://www.w3.org/2000/svg" width="30" height="29.999" viewBox="0 0 30 29.999">
  <path id="Path_30484" data-name="Path 30484" d="M24.375,30h-5a.625.625,0,0,1-.625-.625v-8.75A.625.625,0,0,0,18.125,20h-6.25a.625.625,0,0,0-.625.625v8.75a.625.625,0,0,1-.625.625h-5A1.877,1.877,0,0,1,3.75,28.125V16.25H1.25A1.252,1.252,0,0,1,0,15a1.27,1.27,0,0,1,.37-.891L14.562.179a.626.626,0,0,1,.875,0L29.625,14.1A1.274,1.274,0,0,1,30,15a1.252,1.252,0,0,1-1.25,1.25h-2.5V28.125A1.877,1.877,0,0,1,24.375,30ZM20,28.75h4.375A.625.625,0,0,0,25,28.125v-12.5A.625.625,0,0,1,25.625,15H28.75L15,1.5,1.25,15l3.125,0A.625.625,0,0,1,5,15.625v12.5a.625.625,0,0,0,.625.625H10V20.625a1.877,1.877,0,0,1,1.875-1.875h6.25A1.877,1.877,0,0,1,20,20.625Z" transform="translate(0 0)" fill="#222"/>
</svg>
