<svg xmlns="http://www.w3.org/2000/svg" width="43.742" height="43.742" viewBox="0 0 43.742 43.742">
  <g id="money" transform="translate(2 1.822)">
    <g id="Ellipse_58" data-name="Ellipse 58" transform="translate(0 0.178)" fill="#31823e" stroke="#48be5a" stroke-linecap="round" stroke-width="2">
      <circle cx="19.871" cy="19.871" r="19.871" stroke="none"/>
      <circle cx="19.871" cy="19.871" r="20.871" fill="none"/>
    </g>
    <path id="Path_30630" data-name="Path 30630" d="M201,40a20,20,0,1,0-20-20A20.022,20.022,0,0,0,201,40ZM198.778,9.3V6.756a2.222,2.222,0,1,1,4.444,0V9.323a6.641,6.641,0,0,1,3.55,2.9,2.222,2.222,0,0,1-3.845,2.227A2.223,2.223,0,1,0,201,17.778,6.65,6.65,0,0,1,203.222,30.7v2.454a2.222,2.222,0,1,1-4.444,0V30.677a6.644,6.644,0,0,1-3.55-2.9,2.222,2.222,0,0,1,3.846-2.227A2.223,2.223,0,1,0,201,22.222,6.65,6.65,0,0,1,198.778,9.3Zm0,0" transform="translate(-181)" fill="#fff"/>
  </g>
</svg>
