<svg id="users" xmlns="http://www.w3.org/2000/svg" width="47.248" height="30" viewBox="0 0 47.248 30">
  <path id="Path_30487" data-name="Path 30487" d="M40.863,105.45a5.394,5.394,0,1,0-6.189,0,9.346,9.346,0,0,0-3.188,1.87,12.094,12.094,0,0,0-4.375-2.384,6.834,6.834,0,1,0-7.068,0,12.2,12.2,0,0,0-4.328,2.356,9.422,9.422,0,0,0-3.151-1.832,5.394,5.394,0,1,0-6.189,0A9.469,9.469,0,0,0,0,114.406v.617a.04.04,0,0,0,.037.037H11.471a12.574,12.574,0,0,0-.1,1.58v.636a4.971,4.971,0,0,0,4.974,4.974H30.832a4.971,4.971,0,0,0,4.974-4.974v-.636a12.573,12.573,0,0,0-.1-1.58H47.211a.04.04,0,0,0,.037-.037v-.617A9.5,9.5,0,0,0,40.863,105.45Zm-6.993-4.422a3.9,3.9,0,1,1,3.973,3.9h-.15A3.893,3.893,0,0,1,33.87,101.028Zm-15.65-1.945a5.338,5.338,0,1,1,5.647,5.329H23.25A5.346,5.346,0,0,1,18.221,99.084ZM5.544,101.028a3.9,3.9,0,1,1,3.973,3.9h-.15A3.9,3.9,0,0,1,5.544,101.028Zm6.189,12.527H1.514a7.988,7.988,0,0,1,7.872-7.133H9.5a7.9,7.9,0,0,1,5.1,1.9A12.275,12.275,0,0,0,11.733,113.556Zm22.558,3.721a3.483,3.483,0,0,1-3.478,3.478H16.323a3.483,3.483,0,0,1-3.478-3.478v-.636A10.739,10.739,0,0,1,23.25,105.918c.1.009.215.009.318.009s.215,0,.318-.009a10.739,10.739,0,0,1,10.405,10.723Zm1.112-3.721a12.242,12.242,0,0,0-2.833-5.2,7.943,7.943,0,0,1,5.142-1.935h.112a7.988,7.988,0,0,1,7.872,7.133Z" transform="translate(0 -92.25)" fill="#222"/>
</svg>
